<svg width="85" height="85" viewBox="0 0 85 85" fill="none" xmlns="http://www.w3.org/2000/svg">
<g clip-path="url(#clip0)">
<path d="M84.9847 9.4494C84.371 20.95 64.5527 39.6832 49.8207 51.9763C49.3532 51.9549 49.0694 51.9418 48.6019 51.9204L34.1905 37.5084C34.1609 37.0377 34.1425 36.744 34.1131 36.2734C45.8238 21.244 63.5452 1.26184 74.9821 0.0590577C80.8292 -0.555366 85.2935 3.69663 84.9847 9.4494Z" fill="#4547DC"/>
<path d="M49.8206 51.9764C45.2724 55.7803 40.7123 59.3337 38.2038 61.2274C37.1895 54.862 32.2039 49.2985 25.1347 48.3771C25.2456 48.2111 28.8688 42.9896 34.1129 36.2734L49.8206 51.9764Z" fill="#E0F4FE"/>
<path d="M34.3336 51.9874C27.0603 44.7136 14.8599 46.5884 8.70905 54.2764C1.45301 63.3465 7.52735 71.4405 0.682862 78.6572C-0.508964 79.9136 -0.0837983 81.9781 1.50979 82.6603C12.845 87.5129 27.1199 84.362 33.7356 77.3865C39.9558 70.828 41.8801 59.5343 34.3336 51.9874Z" fill="#FFBE0B"/>
</g>
<defs>
<clipPath id="clip0">
<rect width="85" height="85" fill="white"/>
</clipPath>
</defs>
</svg>
