<svg width="85" height="85" viewBox="0 0 85 85" fill="none" xmlns="http://www.w3.org/2000/svg">
<path d="M15.5573 16.2638L23.0492 4.91196L25.4878 6.55618L17.9959 17.908L15.5573 16.2638Z" fill="#4547DC"/>
<path d="M59.5139 6.5321L61.9525 4.88789L69.4444 16.2397L67.0058 17.8839L59.5139 6.5321Z" fill="#4547DC"/>
<path d="M8.7931 15.8502H76.2069C81.0632 15.8502 85 19.8294 85 24.7379V75.1012C85 78.3736 82.3755 81.0263 79.1379 81.0263H5.86207C2.62454 81.0263 0 78.3736 0 75.1012V24.7379C0 19.8294 3.93681 15.8502 8.7931 15.8502Z" fill="#4547DC"/>
<path d="M81.1021 17.3611C79.8492 18.478 79.1335 20.0867 79.1383 21.7753V48.4382C79.1335 50.0724 77.8241 51.3959 76.2073 51.4008H8.79351C7.17675 51.3959 5.8673 50.0724 5.86247 48.4382V21.7753C5.86733 20.0867 5.15165 18.478 3.89868 17.3611C5.34246 16.3705 7.04857 15.8439 8.79351 15.8502H76.2073C77.9522 15.8439 79.6584 16.3705 81.1021 17.3611Z" fill="#8F91F4"/>
<path d="M60.0862 4H24.9138C23.2951 4 21.9828 5.32638 21.9828 6.96255C21.9828 8.59872 23.2951 9.9251 24.9138 9.9251H60.0862C61.705 9.9251 63.0173 8.59872 63.0173 6.96255C63.0173 5.32638 61.705 4 60.0862 4Z" fill="#8F91F4"/>
<path d="M38.1032 57.3259V55.8446C38.1032 51.4008 35.1721 49.9195 35.1721 43.9944C35.1718 41.945 36.0116 39.987 37.4917 38.5864C38.9719 37.1857 40.9601 36.4676 42.9833 36.6028C47.1131 37.0613 50.1329 40.7568 49.798 44.9424C49.5049 50.0972 46.8962 51.6526 46.8962 55.8446V57.3259H38.1032Z" fill="#F29C1F"/>
<path d="M38.1033 55.8447V49.9196C38.1033 48.2834 39.4155 46.957 41.0343 46.957H43.9653C45.5841 46.957 46.8964 48.2834 46.8964 49.9196V70.6574C46.8964 73.1117 44.928 75.1013 42.4998 75.1013C40.0717 75.1013 38.1033 73.1117 38.1033 70.6574V55.8447Z" fill="#F0C419"/>
<path d="M46.8963 57.3259H38.1032C37.2938 57.3259 36.6377 57.9891 36.6377 58.8072V61.7698C36.6377 62.5878 37.2938 63.251 38.1032 63.251H46.8963C47.7057 63.251 48.3618 62.5878 48.3618 61.7698V58.8072C48.3618 57.9891 47.7057 57.3259 46.8963 57.3259Z" fill="#F3D55B"/>
</svg>
