<svg width="85" height="85" viewBox="0 0 85 85" fill="none" xmlns="http://www.w3.org/2000/svg">
<g clip-path="url(#clip0)">
<path d="M84.7968 43.8162C85.1065 44.9099 85.0615 46.0737 84.6681 47.1401C84.2748 48.2066 83.5534 49.1209 82.6077 49.7516L80.6036 51.087V51.3581C80.6039 52.1937 80.4254 53.0197 80.08 53.7805C79.7347 54.5414 79.2305 55.2195 78.6013 55.7694L68.8794 64.2767L64.4829 54.0181L71.8105 48.156L71.0447 44.3237L70.345 40.8284V37.8974C70.345 37.12 70.6538 36.3745 71.2034 35.8248C71.7531 35.2751 72.4986 34.9663 73.276 34.9663H74.1773V22.2218C74.1773 19.5839 76.3371 17.3471 78.9732 17.3801C79.5599 17.3864 80.1403 17.5026 80.6842 17.7227C81.5597 18.0763 82.3096 18.6833 82.8377 19.466C83.3658 20.2487 83.648 21.1714 83.6482 22.1156V22.7915L85.0001 25.4973L83.6482 26.8492V29.5549H79.5887V34.9663L82.2889 39.3537L84.2033 42.4643C84.4626 42.8854 84.6623 43.3403 84.7968 43.8162Z" fill="#FEC093"/>
<path d="M84.9996 45.2799C84.9997 46.1646 84.7814 47.0357 84.3641 47.8158C83.9467 48.5958 83.3432 49.2608 82.6072 49.7516L80.6031 51.0871L71.81 48.156L71.0443 44.3237C74.5212 44.571 79.5955 44.0984 82.0686 39.852L82.2884 39.3538L84.2027 42.4643C84.7236 43.3111 84.9995 44.2858 84.9996 45.2799Z" fill="#FFBE0B"/>
<path d="M68.8793 64.2767L65.5053 66.5259C64.831 66.9756 64.0706 67.2805 63.2724 67.4213L39.569 71.6043H1.74781C1.51828 71.6043 1.29099 71.5591 1.07893 71.4713C0.86686 71.3835 0.674173 71.2547 0.511869 71.0924C0.349565 70.9301 0.220823 70.7374 0.132995 70.5254C0.045168 70.3133 -2.40517e-05 70.086 9.60303e-09 69.8565C5.75379e-05 69.5071 0.104803 69.1658 0.300722 68.8766C0.49664 68.5873 0.77474 68.3635 1.09914 68.2338L7.32759 65.7422L8.55954 64.5103C9.03864 64.0311 9.66896 63.7328 10.3433 63.666C11.0175 63.5992 11.6941 63.7681 12.258 64.1439L14.6552 65.7422L23.4483 65.2788L26.3793 65.1249L38.1035 64.2767L54.2241 59.8802L54.3799 59.4909C55.1593 57.5422 56.5965 55.9279 58.442 54.9282C60.2874 53.9285 62.4247 53.6065 64.4828 54.0181L68.8793 64.2767Z" fill="#FEC093"/>
<path d="M68.8794 64.2767L65.5054 66.5259C64.8311 66.9756 64.0707 67.2805 63.2725 67.4213L39.5691 71.6043H23.4484V65.2788L26.3794 65.1249L38.1036 64.2767L54.2242 59.8802L54.38 59.4909C55.1594 57.5422 56.5966 55.9279 58.4421 54.9282C60.2875 53.9285 62.4248 53.6065 64.4829 54.0181L68.8794 64.2767Z" fill="#4547DC"/>
<path d="M72.4865 20.0857H67.0755C65.9991 20.0857 64.9669 20.5133 64.2058 21.2744C63.4447 22.0355 63.0171 23.0677 63.0171 24.1441V33.6135H64.37C65.4463 33.6135 66.4785 33.186 67.2395 32.4249C68.0006 31.6638 68.4282 30.6316 68.4282 29.5553V24.1441L72.4865 22.7912V20.0857Z" fill="#6E3C26"/>
<path d="M75.8022 26.0331L74.7763 25.0072C74.4962 24.7272 74.3253 24.3563 74.2945 23.9614C74.2638 23.5665 74.3751 23.1736 74.6084 22.8535C74.8417 22.5334 75.1817 22.3072 75.5671 22.2157C75.9525 22.1241 76.3579 22.1733 76.7102 22.3543L77.0711 22.5397L80.6838 17.7232C80.1207 17.4958 79.519 17.3793 78.9118 17.3801H76.7591C76.6745 17.3801 76.5902 17.3818 76.5061 17.3853C72.979 17.5269 70.3706 20.7417 70.8089 24.2444L70.8397 24.4287C71.2511 26.8832 72.418 29.1482 74.1778 30.908L75.8022 26.0331Z" fill="#6E3C26"/>
<path d="M76.2068 67.2077V37.8973C76.2068 37.12 75.898 36.3745 75.3483 35.8248C74.7987 35.2751 74.0531 34.9663 73.2758 34.9663C72.4984 34.9663 71.7529 35.2751 71.2032 35.8248C70.6535 36.3745 70.3447 37.12 70.3447 37.8973V51.087L71.8103 71.6042H80.4229C80.8595 71.6042 81.2781 71.4308 81.5868 71.1222C81.8955 70.8135 82.0689 70.3948 82.0689 69.9583C82.0689 69.5912 81.9462 69.2347 81.7203 68.9454C81.4944 68.6561 81.1782 68.4506 80.8221 68.3616L76.2068 67.2077Z" fill="#FEC9A3"/>
</g>
<defs>
<clipPath id="clip0">
<rect width="85" height="85" fill="white"/>
</clipPath>
</defs>
</svg>
