<svg width="85" height="85" viewBox="0 0 85 85" fill="none" xmlns="http://www.w3.org/2000/svg">
<path d="M25.2301 49.157C24.5021 54.6447 19.855 58.8778 14.2269 58.8778C8.59885 58.8778 3.95191 54.6447 3.22377 49.157H25.2301Z" fill="#FFBE0B"/>
<path d="M24.5915 47.0016L15.0114 20.8165C14.7657 20.1449 15.1051 19.3989 15.7696 19.1506C16.4339 18.9019 17.172 19.2452 17.4177 19.917L26.9977 46.1021C27.2434 46.7737 26.9041 47.5197 26.2395 47.768C25.576 48.0163 24.8375 47.6739 24.5915 47.0016Z" fill="#CCD2DB"/>
<path d="M3.24808 47.768C2.58369 47.5197 2.24419 46.7737 2.48989 46.1021L12.07 19.917C12.3157 19.2454 13.0531 18.9018 13.718 19.1505C14.3824 19.3989 14.7219 20.1449 14.4762 20.8165L4.89612 47.0016C4.65042 47.6732 3.91248 48.0164 3.24808 47.768Z" fill="#CCD2DB"/>
<path d="M58.755 47.7663C58.0914 47.5154 57.7547 46.7681 58.0029 46.0975L67.583 20.2066C67.8314 19.5358 68.5705 19.1956 69.2339 19.4464C69.8974 19.6972 70.2343 20.4446 69.9859 21.1152L60.4058 47.0061C60.1577 47.6768 59.4184 48.017 58.755 47.7663Z" fill="#CCD2DB"/>
<path d="M80.1054 47.0061L70.5254 21.1152C70.2772 20.4444 70.6139 19.6972 71.2774 19.4464C71.9411 19.1956 72.6801 19.5358 72.9283 20.2066L82.5083 46.0975C82.7565 46.7683 82.4199 47.5154 81.7563 47.7663C81.0932 48.017 80.3538 47.6772 80.1054 47.0061Z" fill="#CCD2DB"/>
<path d="M16.8209 21.7457C16.1665 21.7457 15.6077 21.2419 15.5453 20.5701C15.479 19.857 15.9972 19.2247 16.7026 19.1577C20.9652 18.7531 22.1007 18.2626 38.9976 13.5777C39.6808 13.3884 40.3867 13.7945 40.5741 14.4853C40.7615 15.1759 40.3596 15.8894 39.6763 16.0789C22.6906 20.7884 21.4259 21.3144 16.9425 21.74C16.9016 21.7438 16.8611 21.7457 16.8209 21.7457Z" fill="#8F91F4"/>
<path d="M68.4937 21.8362C68.4535 21.8362 68.4131 21.8344 68.3723 21.8305C63.7182 21.3886 62.4728 20.8618 44.7349 15.9439C44.0517 15.7544 43.6496 15.041 43.8371 14.3503C44.0245 13.6597 44.7306 13.2534 45.4135 13.4427C63.1765 18.3675 64.2432 18.8336 68.6122 19.2483C69.3176 19.3152 69.8357 19.9476 69.7695 20.6606C69.7071 21.3324 69.1481 21.8362 68.4937 21.8362Z" fill="#8F91F4"/>
<path d="M42.4153 8.88225C43.3332 8.88225 44.1928 9.13314 44.9326 9.5688V4.75707C44.9326 3.78674 44.1544 3 43.1944 3H41.636C40.6761 3 39.8978 3.78674 39.8978 4.75707V9.5688C40.6379 9.13281 41.4974 8.88225 42.4153 8.88225Z" fill="#8F91F4"/>
<path d="M44.9324 71.3758V18.3218C44.1926 18.7576 43.333 19.0083 42.4151 19.0083C41.4972 19.0083 40.6376 18.7574 39.8978 18.3218V71.3758H44.9324Z" fill="#8F91F4"/>
<path d="M57.669 43.9465H82.8419C84.0286 43.9465 84.9996 44.9279 84.9996 46.1277V46.976C84.9996 48.1756 84.0286 49.1572 82.8419 49.1572H57.669C56.4824 49.1572 55.5114 48.1758 55.5114 46.976V46.1277C55.5114 44.9279 56.4824 43.9465 57.669 43.9465Z" fill="#F4B537"/>
<path d="M81.7754 49.157C81.0475 54.6447 76.4004 58.8778 70.7723 58.8778C65.1442 58.8778 60.4972 54.6447 59.7691 49.157H81.7754Z" fill="#FFBE0B"/>
<path d="M14.7438 23.8426C16.6428 23.8426 18.1823 22.2864 18.1823 20.3668C18.1823 18.4471 16.6428 16.8909 14.7438 16.8909C12.8448 16.8909 11.3053 18.4471 11.3053 20.3668C11.3053 22.2864 12.8448 23.8426 14.7438 23.8426Z" fill="#FFBE0B"/>
<path d="M70.2561 23.8426C72.1551 23.8426 73.6946 22.2864 73.6946 20.3668C73.6946 18.4471 72.1551 16.8909 70.2561 16.8909C68.357 16.8909 66.8176 18.4471 66.8176 20.3668C66.8176 22.2864 68.357 23.8426 70.2561 23.8426Z" fill="#FFBE0B"/>
<path d="M52.1253 70.8573H32.7063C31.5196 70.8573 30.5486 71.8387 30.5486 73.0385V76.5865H54.283V73.0385C54.283 71.8387 53.312 70.8573 52.1253 70.8573Z" fill="#4547DC"/>
<path d="M55.0479 76.0677H29.875C28.6884 76.0677 27.7173 77.0492 27.7173 78.2489V79.0972C27.7173 80.2968 28.6884 81.2784 29.875 81.2784H55.0479C56.2346 81.2784 57.2057 80.297 57.2057 79.0972V78.2489C57.2057 77.0492 56.2346 76.0677 55.0479 76.0677Z" fill="#4547DC"/>
<path d="M42.4154 19.0083C45.1816 19.0083 47.424 16.7415 47.424 13.9452C47.424 11.1489 45.1816 8.88208 42.4154 8.88208C39.6491 8.88208 37.4067 11.1489 37.4067 13.9452C37.4067 16.7415 39.6491 19.0083 42.4154 19.0083Z" fill="#FFBE0B"/>
<path d="M2.1577 43.9465H27.3306C28.5173 43.9465 29.4883 44.9279 29.4883 46.1277V46.976C29.4883 48.1756 28.5173 49.1572 27.3306 49.1572H2.1577C0.970858 49.157 0 48.1754 0 46.9759V46.1275C0 44.9279 0.970858 43.9465 2.1577 43.9465Z" fill="#F4B537"/>
</svg>
