<svg width="85" height="85" viewBox="0 0 85 85" fill="none" xmlns="http://www.w3.org/2000/svg">
<path d="M77.6169 15.1074H39.9235L34.2588 84.1361C35.2543 84.6397 36.325 85 37.5012 85H77.6169C81.688 85 84.9997 81.6488 84.9997 77.5293V22.5781C84.9997 18.4586 81.688 15.1074 77.6169 15.1074Z" fill="#DADBFD"/>
<path d="M28.8691 67.7112L30.1766 78.4559C30.4391 80.5899 31.8664 82.9254 34.2594 84.1361C39.0446 78.9275 35.8367 82.2533 47.1923 69.8926L28.8691 67.7112Z" fill="#8F91F4"/>
<path d="M47.192 69.8926C47.997 68.9616 48.7031 68.3365 48.5132 67.0545L41.0582 6.54417C40.5991 2.81363 37.4485 0 33.7331 0H8.38281C4.31177 0 1 3.35119 1 7.4707V62.4219C1 66.5414 4.31177 69.8926 8.38281 69.8926C21.2456 69.8926 34.288 69.8926 47.192 69.8926Z" fill="#4547DC"/>
<path d="M28.1865 19.5991C27.9559 18.4367 26.9464 17.5977 25.7737 17.5977H20.8518C19.6791 17.5977 18.6696 18.4367 18.4389 19.5991L13.5171 44.5015C13.2503 45.8512 14.1154 47.1619 15.4469 47.4318C16.7952 47.7116 18.0785 46.8264 18.3428 45.479L19.9157 37.5195H26.7097L28.2825 45.479C28.5517 46.8465 29.8734 47.7036 31.1784 47.4318C32.5098 47.1619 33.375 45.8512 33.1083 44.5015L28.1865 19.5991ZM20.8999 32.5391L22.8681 22.5781H23.7573L25.7256 32.5391H20.8999Z" fill="#F5F6FE"/>
<path d="M72.5312 37.5195H65.1484V35.0293C65.1484 33.6529 64.0477 32.5391 62.6875 32.5391C61.3273 32.5391 60.2266 33.6529 60.2266 35.0293V37.5195H52.8438C51.4835 37.5195 50.3828 38.6333 50.3828 40.0098C50.3828 41.3862 51.4835 42.5 52.8438 42.5H53.501C54.9013 47.046 56.9578 50.6032 59.2655 53.4076C57.4577 55.08 55.6886 56.4521 53.7664 57.9886C52.7068 58.8471 52.5337 60.4131 53.3845 61.488C54.2314 62.5613 55.7851 62.7355 56.8426 61.8747C58.9311 60.2067 60.7274 58.8107 62.6875 56.9903C64.6476 58.8109 66.4439 60.2069 68.5321 61.8747C69.5899 62.7355 71.1436 62.5613 71.9905 61.488C72.8413 60.4131 72.6682 58.8471 71.6082 57.9886C69.6862 56.4521 67.9172 55.08 66.1094 53.4076C68.4171 50.6034 70.4737 47.0462 71.8739 42.5H72.5312C73.8915 42.5 74.9922 41.3862 74.9922 40.0098C74.9922 38.6333 73.8915 37.5195 72.5312 37.5195ZM62.6875 49.7162C61.1233 47.7267 59.7099 45.3883 58.6473 42.5H66.7277C65.6651 45.3885 64.2517 47.7267 62.6875 49.7162Z" fill="#53565C"/>
</svg>
