<svg width="376" height="223" viewBox="0 0 376 223" fill="none" xmlns="http://www.w3.org/2000/svg">
<g filter="url(#filter0_d)">
<rect x="8" y="4" width="340" height="187" rx="11" fill="#FAFAFC"/>
<mask id="mask0" mask-type="alpha" maskUnits="userSpaceOnUse" x="8" y="4" width="340" height="187">
<rect x="8" y="4" width="340" height="187" rx="11" fill="#F5F6FE"/>
</mask>
<g mask="url(#mask0)">
<path d="M235.505 151.25C238.392 146.25 245.608 146.25 248.495 151.25L299.591 239.75C302.477 244.75 298.869 251 293.096 251H190.904C185.131 251 181.523 244.75 184.409 239.75L235.505 151.25Z" stroke="#3A86FF" stroke-width="5"/>
<circle cx="28.5" cy="23.5" r="47" stroke="#FFBE0B" stroke-width="5"/>
</g>
<path d="M284.68 163.174L283.094 160.886H281.469V170.35C281.469 170.766 281.651 171 282.119 171C282.587 171 282.769 170.766 282.769 170.35V162.68H282.795L284.03 164.513V164.721C284.03 165.124 284.212 165.501 284.68 165.501C285.174 165.501 285.33 165.124 285.33 164.721V164.513L286.565 162.68H286.591V170.35C286.591 170.766 286.773 171 287.241 171C287.709 171 287.891 170.766 287.891 170.35V160.886H286.266L284.68 163.174ZM294.036 163.174L292.45 160.886H290.825V170.35C290.825 170.766 291.007 171 291.475 171C291.943 171 292.125 170.766 292.125 170.35V162.68H292.151L293.386 164.513V164.721C293.386 165.124 293.568 165.501 294.036 165.501C294.53 165.501 294.686 165.124 294.686 164.721V164.513L295.921 162.68H295.947V170.35C295.947 170.766 296.129 171 296.597 171C297.065 171 297.247 170.766 297.247 170.35V160.886H295.622L294.036 163.174ZM306.461 162.004C306.539 161.861 306.604 161.705 306.604 161.497C306.604 161.159 306.305 160.886 305.967 160.886C305.642 160.886 305.486 161.12 305.33 161.38L300.468 169.713C300.338 169.921 300.182 170.142 300.182 170.389C300.182 170.727 300.507 171 300.832 171C301.157 171 301.313 170.818 301.469 170.545L306.461 162.004ZM309.538 170.35C309.447 170.662 309.798 171 310.162 171C310.565 171 310.773 170.662 310.864 170.35L311.358 168.79H314.127L314.608 170.35C314.699 170.662 314.907 171 315.31 171C315.674 171 316.025 170.662 315.934 170.35L313.425 161.549C313.334 161.211 313.178 160.886 312.749 160.886C312.333 160.886 312.19 161.198 312.086 161.549L309.538 170.35ZM313.763 167.49H311.722L312.736 163.967H312.762L313.763 167.49ZM318.895 170.35C318.804 170.662 319.155 171 319.519 171C319.922 171 320.13 170.662 320.221 170.35L320.715 168.79H323.484L323.965 170.35C324.056 170.662 324.264 171 324.667 171C325.031 171 325.382 170.662 325.291 170.35L322.782 161.549C322.691 161.211 322.535 160.886 322.106 160.886C321.69 160.886 321.547 161.198 321.443 161.549L318.895 170.35ZM323.12 167.49H321.079L322.093 163.967H322.119L323.12 167.49Z" fill="#8B90A0"/>
<path d="M280.036 144.551H280.734C280.812 144.551 280.875 144.571 280.923 144.61C280.971 144.649 281.007 144.698 281.031 144.758L282.853 149.308C282.895 149.41 282.933 149.521 282.966 149.641C283.002 149.761 283.036 149.885 283.069 150.014C283.096 149.885 283.125 149.761 283.155 149.641C283.188 149.521 283.225 149.41 283.267 149.308L285.081 144.758C285.102 144.707 285.138 144.661 285.188 144.619C285.24 144.574 285.303 144.551 285.378 144.551H286.08L283.452 151H282.664L280.036 144.551ZM292.874 144.551V145.262H289.778V147.404H292.284V148.088H289.778V150.289H292.874V151H288.9V144.551H292.874ZM296.58 144.551C296.658 144.551 296.715 144.562 296.751 144.583C296.79 144.601 296.833 144.64 296.881 144.7L300.616 149.56C300.607 149.482 300.601 149.407 300.598 149.335C300.595 149.26 300.594 149.188 300.594 149.119V144.551H301.359V151H300.918C300.849 151 300.79 150.988 300.742 150.964C300.697 150.94 300.652 150.899 300.607 150.842L296.877 145.987C296.883 146.062 296.887 146.135 296.89 146.207C296.893 146.279 296.895 146.345 296.895 146.405V151H296.13V144.551H296.58ZM309.477 149.668C309.525 149.668 309.569 149.687 309.608 149.726L309.95 150.1C309.686 150.406 309.365 150.644 308.987 150.815C308.612 150.987 308.159 151.072 307.628 151.072C307.163 151.072 306.741 150.993 306.363 150.833C305.985 150.671 305.663 150.446 305.396 150.158C305.129 149.867 304.922 149.519 304.775 149.114C304.628 148.709 304.554 148.264 304.554 147.778C304.554 147.292 304.632 146.846 304.788 146.441C304.947 146.036 305.169 145.688 305.454 145.397C305.739 145.106 306.08 144.881 306.476 144.722C306.875 144.56 307.314 144.479 307.794 144.479C308.268 144.479 308.676 144.553 309.018 144.7C309.363 144.847 309.669 145.046 309.936 145.298L309.653 145.699C309.632 145.729 309.608 145.754 309.581 145.775C309.554 145.793 309.515 145.802 309.464 145.802C309.425 145.802 309.383 145.789 309.338 145.762C309.296 145.732 309.245 145.696 309.185 145.654C309.125 145.612 309.054 145.567 308.973 145.519C308.892 145.471 308.796 145.426 308.685 145.384C308.574 145.342 308.445 145.307 308.298 145.28C308.151 145.25 307.982 145.235 307.79 145.235C307.445 145.235 307.128 145.295 306.84 145.415C306.555 145.532 306.309 145.7 306.102 145.919C305.895 146.138 305.733 146.405 305.616 146.72C305.502 147.035 305.445 147.388 305.445 147.778C305.445 148.18 305.502 148.538 305.616 148.853C305.733 149.168 305.891 149.435 306.089 149.654C306.29 149.87 306.527 150.035 306.8 150.149C307.073 150.263 307.367 150.32 307.682 150.32C307.874 150.32 308.046 150.31 308.199 150.289C308.352 150.265 308.493 150.229 308.622 150.181C308.754 150.133 308.876 150.073 308.987 150.001C309.101 149.926 309.215 149.837 309.329 149.735C309.38 149.69 309.429 149.668 309.477 149.668ZM317.067 144.551V145.262H313.971V147.404H316.478V148.088H313.971V150.289H317.067V151H313.094V144.551H317.067Z" fill="#505565"/>
<path d="M30.469 170.35C30.378 170.662 30.729 171 31.093 171C31.496 171 31.704 170.662 31.795 170.35L32.289 168.79H35.058L35.539 170.35C35.63 170.662 35.838 171 36.241 171C36.605 171 36.956 170.662 36.865 170.35L34.356 161.549C34.265 161.211 34.109 160.886 33.68 160.886C33.264 160.886 33.121 161.198 33.017 161.549L30.469 170.35ZM34.694 167.49H32.653L33.667 163.967H33.693L34.694 167.49ZM43.6864 162.29C43.6864 161.549 43.4784 161.419 42.7634 161.419H41.4504C41.0344 161.419 40.5924 161.51 40.5924 162.043C40.5924 162.589 41.0864 162.667 41.4504 162.667H42.4384V169.752H41.4504C41.0344 169.752 40.5924 169.843 40.5924 170.376C40.5924 170.922 41.0864 171 41.4504 171H44.6224C44.9864 171 45.4804 170.922 45.4804 170.376C45.4804 169.843 45.0384 169.752 44.6224 169.752H43.6864V162.29ZM51.1709 170.142C51.1709 170.571 51.2619 171 51.7949 171C52.3279 171 52.4189 170.571 52.4189 170.142V165.241H53.5239C53.8879 165.241 54.3819 165.163 54.3819 164.617C54.3819 164.084 53.9399 163.993 53.5239 163.993H52.4189V163.746C52.4189 162.836 52.7699 162.667 53.6149 162.667H54.5899C55.0189 162.667 55.4479 162.576 55.4479 162.043C55.4479 161.458 54.9669 161.419 54.5379 161.419H53.6929C52.9259 161.419 52.3669 161.471 51.7689 162.043C51.2099 162.589 51.1709 163.109 51.1709 163.824V163.993H50.8199C50.4039 163.993 49.9619 164.084 49.9619 164.617C49.9619 165.163 50.4559 165.241 50.8199 165.241H51.1709V170.142ZM58.6943 168.673C58.6943 169.492 58.9023 169.804 59.5523 170.35C60.2023 170.896 60.4623 171 61.2553 171H62.2433C63.0363 171 63.2963 170.896 63.9463 170.35C64.5963 169.804 64.8043 169.492 64.8043 168.673V166.32C64.8043 165.488 64.6353 165.202 64.0113 164.695C63.4003 164.188 63.1143 163.993 62.2433 163.993H61.2553C60.3843 163.993 60.0983 164.188 59.4873 164.695C58.8633 165.202 58.6943 165.488 58.6943 166.32V168.673ZM59.9423 166.32C59.9423 166.06 60.0333 165.891 60.3973 165.579C60.6703 165.345 60.8653 165.241 61.2553 165.241H62.2433C62.6333 165.241 62.8283 165.345 63.1013 165.579C63.4653 165.891 63.5563 166.06 63.5563 166.32V168.673C63.5563 168.933 63.4653 169.102 63.1013 169.414C62.8283 169.648 62.6333 169.752 62.2433 169.752H61.2553C60.8653 169.752 60.6703 169.648 60.3973 169.414C60.0333 169.102 59.9423 168.933 59.9423 168.673V166.32ZM71.1448 165.358C71.2748 165.28 71.4048 165.241 71.5348 165.241H71.9508C72.7048 165.241 72.7698 165.54 72.7958 166.307L72.9258 170.155C72.9388 170.571 73.0428 171 73.5498 171C74.1088 171 74.1738 170.506 74.1608 170.064L74.0308 166.138C74.0048 165.462 74.0308 164.929 73.4718 164.448C73.0948 164.123 72.7958 163.993 72.3148 163.993H71.3918C70.9888 163.993 70.6378 164.201 70.3128 164.409L69.2988 165.072V165.046V164.903C69.2988 164.461 69.2338 163.993 68.6748 163.993C68.1028 163.993 68.0508 164.461 68.0508 164.916V170.142C68.0508 170.571 68.1418 171 68.6748 171C69.2078 171 69.2988 170.571 69.2988 170.142V166.515L71.1448 165.358ZM81.4372 165.241C81.7752 165.241 81.9962 165.267 82.2042 165.488C82.3602 165.657 82.5032 165.748 82.7372 165.748C83.0752 165.748 83.3742 165.475 83.3742 165.124C83.3742 164.773 83.1142 164.617 82.8802 164.422C82.4122 164.032 82.1262 163.993 81.4372 163.993H79.3052C78.3692 163.993 77.5892 164.591 77.5892 165.579C77.5892 166.385 77.9922 166.788 78.6812 167.1L81.6192 168.439C81.9052 168.569 82.2692 168.764 82.2692 169.063C82.2692 169.791 81.6712 169.752 81.2292 169.752H79.5392C79.1492 169.752 78.7592 169.726 78.5382 169.479C78.3952 169.323 78.2522 169.258 78.0572 169.258C77.7062 169.258 77.4072 169.531 77.4072 169.882C77.4072 170.194 77.7452 170.428 77.9792 170.61C78.4472 170.974 78.8892 171 79.5392 171H81.4632C82.6592 171 83.5172 170.402 83.5172 169.141C83.5172 168.244 83.1012 167.737 82.2952 167.373L79.1752 165.956C78.9932 165.878 78.8372 165.8 78.8372 165.592C78.8372 165.189 79.2792 165.241 79.5392 165.241H81.4372ZM86.7637 168.673C86.7637 169.492 86.9717 169.804 87.6217 170.35C88.2717 170.896 88.5317 171 89.3247 171H90.3127C91.1057 171 91.3657 170.896 92.0157 170.35C92.6657 169.804 92.8737 169.492 92.8737 168.673V166.32C92.8737 165.488 92.7047 165.202 92.0807 164.695C91.4697 164.188 91.1837 163.993 90.3127 163.993H89.3247C88.4537 163.993 88.1677 164.188 87.5567 164.695C86.9327 165.202 86.7637 165.488 86.7637 166.32V168.673ZM88.0117 166.32C88.0117 166.06 88.1027 165.891 88.4667 165.579C88.7397 165.345 88.9347 165.241 89.3247 165.241H90.3127C90.7027 165.241 90.8977 165.345 91.1707 165.579C91.5347 165.891 91.6257 166.06 91.6257 166.32V168.673C91.6257 168.933 91.5347 169.102 91.1707 169.414C90.8977 169.648 90.7027 169.752 90.3127 169.752H89.3247C88.9347 169.752 88.7397 169.648 88.4667 169.414C88.1027 169.102 88.0117 168.933 88.0117 168.673V166.32ZM106.621 165.514H106.92L110.508 170.636C110.651 170.844 110.82 171 111.08 171C111.444 171 111.743 170.753 111.743 170.389C111.743 170.142 111.561 169.895 111.418 169.7L108.493 165.514H109.689C110.729 165.514 111.743 164.89 111.743 163.668V162.771C111.743 161.614 110.716 160.886 109.689 160.886H105.321V170.35C105.321 170.766 105.503 171 105.971 171C106.439 171 106.621 170.766 106.621 170.35V165.514ZM106.621 162.186H109.52C109.91 162.186 110.443 162.251 110.443 162.771V163.668C110.443 164.188 109.871 164.214 109.507 164.214H106.621V162.186ZM118.473 165.241C119.37 165.241 119.578 165.397 119.578 166.333V166.619H116.9C116.354 166.619 115.873 166.71 115.444 167.087C114.976 167.503 114.833 167.88 114.833 168.478V169.024C114.833 169.674 114.963 170.129 115.483 170.558C115.938 170.935 116.341 171 116.9 171H118.096C118.499 171 118.512 171 118.863 170.818L119.721 170.376C119.708 170.727 120.033 171 120.358 171C120.774 171 120.956 170.636 120.943 170.272L120.813 166.034C120.8 165.41 120.735 165.033 120.254 164.552C119.76 164.058 119.292 163.993 118.642 163.993H116.926C116.51 163.993 116.068 164.084 116.068 164.617C116.068 165.163 116.562 165.241 116.926 165.241H118.473ZM118.759 167.867C119.448 167.867 119.643 168.075 119.643 168.764V169.037L118.265 169.752H116.887C116.588 169.752 116.081 169.661 116.081 169.245V168.413C116.081 167.958 116.575 167.867 116.913 167.867H118.759ZM128.128 165.8C128.232 165.683 128.466 165.371 128.648 165.371C128.986 165.371 128.921 165.813 128.934 166.034L129.064 170.155C129.077 170.571 129.181 171 129.688 171C130.247 171 130.312 170.506 130.299 170.064L130.169 165.748C130.156 165.267 130.182 164.903 129.87 164.5C129.623 164.175 129.246 163.993 128.83 163.993C128.284 163.993 128.128 164.123 127.738 164.513L127.634 164.617C127.348 164.227 126.971 163.993 126.49 163.993C126.061 163.993 125.866 164.162 125.541 164.409L125.437 164.487C125.359 164.201 125.151 163.993 124.839 163.993C124.306 163.993 124.189 164.435 124.189 164.877V170.142C124.189 170.571 124.28 171 124.813 171C125.346 171 125.437 170.571 125.437 170.142V166.086L125.983 165.579C126.087 165.488 126.178 165.371 126.321 165.371C126.646 165.371 126.62 165.761 126.62 165.969V170.142C126.62 170.571 126.711 171 127.244 171C127.777 171 127.868 170.571 127.868 170.142V166.086L128.128 165.8ZM137.251 164.864C137.251 164.123 137.043 163.993 136.328 163.993H135.015C134.599 163.993 134.157 164.084 134.157 164.617C134.157 165.163 134.651 165.241 135.015 165.241H136.003V169.752H135.015C134.599 169.752 134.157 169.843 134.157 170.376C134.157 170.922 134.651 171 135.015 171H138.187C138.551 171 139.045 170.922 139.045 170.376C139.045 169.843 138.603 169.752 138.187 169.752H137.251V164.864ZM135.366 162.069C135.366 162.511 135.613 162.654 135.951 162.654H136.666C137.004 162.654 137.251 162.511 137.251 162.069V161.471C137.251 161.029 137.004 160.886 136.666 160.886H135.951C135.613 160.886 135.366 161.029 135.366 161.471V162.069ZM142.902 170.142C142.902 170.571 142.993 171 143.526 171C144.059 171 144.15 170.571 144.15 170.142V166.983L145.892 165.54C146.113 165.358 146.282 165.241 146.516 165.241H146.88C147.179 165.241 147.478 165.241 147.634 165.462C147.764 165.644 147.764 165.8 147.764 166.008C147.764 166.411 147.946 166.775 148.401 166.775C148.934 166.775 149.012 166.333 149.012 165.904C149.012 165.332 148.869 164.903 148.453 164.487C148.115 164.149 147.712 163.993 147.231 163.993H146.23C145.84 163.993 145.476 164.24 145.125 164.526L144.15 165.332V164.825C144.15 164.409 144.02 163.993 143.526 163.993C142.954 163.993 142.902 164.461 142.902 164.916V170.142ZM157.511 171C157.875 171 158.369 170.922 158.369 170.376C158.369 169.843 157.927 169.752 157.511 169.752H154.833C154.417 169.752 154.17 169.7 154.001 169.518L153.689 169.18C153.598 169.089 153.507 168.933 153.507 168.816V168.4H157.511C158.252 168.4 158.369 168.192 158.369 167.477V166.476C158.369 165.787 158.291 165.306 157.719 164.851L157.212 164.448C156.731 164.058 156.445 163.993 155.834 163.993H154.69C154.183 163.993 153.897 164.006 153.312 164.513L152.87 164.89C152.35 165.332 152.259 165.722 152.259 166.385V168.79C152.259 169.466 152.402 169.752 152.896 170.194L153.429 170.662C153.819 171 154.027 171 154.547 171H157.511ZM153.507 166.268C153.507 165.904 153.611 165.813 153.767 165.696L154.196 165.384C154.404 165.241 154.599 165.241 154.833 165.241H155.886C156.081 165.241 156.328 165.254 156.484 165.397L156.965 165.813C157.134 165.969 157.121 166.164 157.121 166.398V167.152H153.507V166.268ZM161.849 169.349C161.628 169.557 161.615 169.648 161.615 169.947V170.272C161.615 170.636 161.667 171 162.538 171H166.867C167.231 171 167.725 170.922 167.725 170.376C167.725 169.843 167.283 169.752 166.867 169.752H163.175L167.361 165.761C167.647 165.488 167.725 165.306 167.725 165.059V164.643C167.725 164.201 167.517 163.993 166.88 163.993H162.824C162.408 163.993 161.966 164.084 161.966 164.617C161.966 165.163 162.46 165.241 162.824 165.241H166.152L161.849 169.349Z" fill="#8B90A0"/>
<path d="M30.233 144.551C30.311 144.551 30.368 144.562 30.404 144.583C30.443 144.601 30.4865 144.64 30.5345 144.7L34.2695 149.56C34.2605 149.482 34.2545 149.407 34.2515 149.335C34.2485 149.26 34.247 149.188 34.247 149.119V144.551H35.012V151H34.571C34.502 151 34.4435 150.988 34.3955 150.964C34.3505 150.94 34.3055 150.899 34.2605 150.842L30.53 145.987C30.536 146.062 30.5405 146.135 30.5435 146.207C30.5465 146.279 30.548 146.345 30.548 146.405V151H29.783V144.551H30.233ZM44.5752 147.778C44.5752 148.261 44.4987 148.705 44.3457 149.11C44.1927 149.512 43.9767 149.858 43.6977 150.149C43.4187 150.44 43.0827 150.667 42.6897 150.829C42.2997 150.988 41.8677 151.068 41.3937 151.068C40.9197 151.068 40.4877 150.988 40.0977 150.829C39.7077 150.667 39.3732 150.44 39.0942 150.149C38.8152 149.858 38.5992 149.512 38.4462 149.11C38.2932 148.705 38.2167 148.261 38.2167 147.778C38.2167 147.295 38.2932 146.852 38.4462 146.45C38.5992 146.045 38.8152 145.697 39.0942 145.406C39.3732 145.112 39.7077 144.884 40.0977 144.722C40.4877 144.56 40.9197 144.479 41.3937 144.479C41.8677 144.479 42.2997 144.56 42.6897 144.722C43.0827 144.884 43.4187 145.112 43.6977 145.406C43.9767 145.697 44.1927 146.045 44.3457 146.45C44.4987 146.852 44.5752 147.295 44.5752 147.778ZM43.6797 147.778C43.6797 147.382 43.6257 147.026 43.5177 146.711C43.4097 146.396 43.2567 146.131 43.0587 145.915C42.8607 145.696 42.6207 145.528 42.3387 145.411C42.0567 145.294 41.7417 145.235 41.3937 145.235C41.0487 145.235 40.7352 145.294 40.4532 145.411C40.1712 145.528 39.9297 145.696 39.7287 145.915C39.5307 146.131 39.3777 146.396 39.2697 146.711C39.1617 147.026 39.1077 147.382 39.1077 147.778C39.1077 148.174 39.1617 148.529 39.2697 148.844C39.3777 149.156 39.5307 149.422 39.7287 149.641C39.9297 149.857 40.1712 150.023 40.4532 150.14C40.7352 150.254 41.0487 150.311 41.3937 150.311C41.7417 150.311 42.0567 150.254 42.3387 150.14C42.6207 150.023 42.8607 149.857 43.0587 149.641C43.2567 149.422 43.4097 149.156 43.5177 148.844C43.6257 148.529 43.6797 148.174 43.6797 147.778ZM50.9389 148.669C50.9809 148.741 51.0169 148.817 51.0469 148.898C51.0799 148.976 51.1114 149.056 51.1414 149.137C51.1714 149.053 51.2029 148.973 51.2359 148.898C51.2689 148.82 51.3064 148.742 51.3484 148.664L53.5309 144.7C53.5699 144.631 53.6104 144.589 53.6524 144.574C53.6944 144.559 53.7544 144.551 53.8324 144.551H54.4759V151H53.7109V146.261C53.7109 146.198 53.7124 146.131 53.7154 146.059C53.7184 145.987 53.7229 145.913 53.7289 145.838L51.5194 149.87C51.4444 150.005 51.3394 150.073 51.2044 150.073H51.0784C50.9434 150.073 50.8384 150.005 50.7634 149.87L48.5044 145.825C48.5134 145.903 48.5194 145.979 48.5224 146.054C48.5284 146.129 48.5314 146.198 48.5314 146.261V151H47.7664V144.551H48.4099C48.4879 144.551 48.5479 144.559 48.5899 144.574C48.6319 144.589 48.6724 144.631 48.7114 144.7L50.9389 148.669ZM58.0457 151V144.551H60.1022C60.4982 144.551 60.8387 144.59 61.1237 144.668C61.4117 144.746 61.6472 144.857 61.8302 145.001C62.0162 145.145 62.1527 145.322 62.2397 145.532C62.3297 145.739 62.3747 145.973 62.3747 146.234C62.3747 146.393 62.3492 146.546 62.2982 146.693C62.2502 146.84 62.1752 146.977 62.0732 147.103C61.9742 147.229 61.8482 147.341 61.6952 147.44C61.5452 147.539 61.3682 147.62 61.1642 147.683C61.6352 147.776 61.9907 147.946 62.2307 148.192C62.4707 148.438 62.5907 148.762 62.5907 149.164C62.5907 149.437 62.5397 149.686 62.4377 149.911C62.3387 150.136 62.1917 150.329 61.9967 150.491C61.8047 150.653 61.5677 150.779 61.2857 150.869C61.0067 150.956 60.6872 151 60.3272 151H58.0457ZM58.9187 148.061V150.307H60.3137C60.5627 150.307 60.7757 150.278 60.9527 150.221C61.1327 150.164 61.2797 150.085 61.3937 149.983C61.5107 149.878 61.5962 149.755 61.6502 149.614C61.7042 149.47 61.7312 149.312 61.7312 149.141C61.7312 148.808 61.6127 148.546 61.3757 148.354C61.1417 148.159 60.7862 148.061 60.3092 148.061H58.9187ZM58.9187 147.44H60.0707C60.3167 147.44 60.5297 147.413 60.7097 147.359C60.8897 147.305 61.0382 147.23 61.1552 147.134C61.2752 147.038 61.3637 146.923 61.4207 146.788C61.4777 146.65 61.5062 146.5 61.5062 146.338C61.5062 145.96 61.3922 145.682 61.1642 145.505C60.9362 145.328 60.5822 145.24 60.1022 145.24H58.9187V147.44ZM66.8313 148.309V151H65.9628V144.551H67.7853C68.1933 144.551 68.5458 144.593 68.8428 144.677C69.1398 144.758 69.3843 144.877 69.5763 145.033C69.7713 145.189 69.9153 145.378 70.0083 145.6C70.1013 145.819 70.1478 146.065 70.1478 146.338C70.1478 146.566 70.1118 146.779 70.0398 146.977C69.9678 147.175 69.8628 147.353 69.7248 147.512C69.5898 147.668 69.4233 147.802 69.2253 147.913C69.0303 148.024 68.8083 148.108 68.5593 148.165C68.6673 148.228 68.7633 148.319 68.8473 148.439L70.7283 151H69.9543C69.7953 151 69.6783 150.938 69.6033 150.815L67.9293 148.511C67.8783 148.439 67.8228 148.388 67.7628 148.358C67.7028 148.325 67.6128 148.309 67.4928 148.309H66.8313ZM66.8313 147.674H67.7448C67.9998 147.674 68.2233 147.644 68.4153 147.584C68.6103 147.521 68.7723 147.434 68.9013 147.323C69.0333 147.209 69.1323 147.074 69.1983 146.918C69.2643 146.762 69.2973 146.59 69.2973 146.401C69.2973 146.017 69.1698 145.727 68.9148 145.532C68.6628 145.337 68.2863 145.24 67.7853 145.24H66.8313V147.674ZM77.6383 144.551V145.262H74.5423V147.404H77.0488V148.088H74.5423V150.289H77.6383V151H73.6648V144.551H77.6383Z" fill="#505565"/>
<path d="M33.686 102.542H39.89C40.616 102.542 41.122 102.432 41.672 101.926C42.288 101.354 42.354 100.76 42.354 99.968V95.458C42.354 94.666 42.288 94.072 41.672 93.5C41.122 92.994 40.616 92.884 39.89 92.884H32.586C32.014 92.884 31.486 93.192 31.486 93.984C31.486 94.776 32.014 95.084 32.586 95.084H40.154V100.342H33.972C32.322 100.342 31.486 101.178 31.486 102.828V110H41.254C41.826 110 42.354 109.692 42.354 108.9C42.354 108.108 41.826 107.8 41.254 107.8H33.686V102.542ZM55.988 95.084V98.736C55.988 99.968 55.504 100.342 54.888 100.342H50.576C50.004 100.342 49.476 100.65 49.476 101.442C49.476 102.234 50.004 102.542 50.576 102.542H54.888C55.504 102.542 55.988 102.916 55.988 104.148V107.8H48.42C47.848 107.8 47.32 108.108 47.32 108.9C47.32 109.692 47.848 110 48.42 110H55.988C57.242 110 58.188 109.054 58.188 107.8V103.576C58.188 102.696 58.012 102.058 57.33 101.442C58.012 100.826 58.188 100.188 58.188 99.308V95.084C58.188 93.83 57.242 92.884 55.988 92.884H48.42C47.848 92.884 47.32 93.192 47.32 93.984C47.32 94.776 47.848 95.084 48.42 95.084H55.988ZM69.688 107.8V92.884H64.254C63.682 92.884 63.154 93.192 63.154 93.984C63.154 94.776 63.682 95.084 64.254 95.084H67.488V107.8H64.254C63.682 107.8 63.154 108.108 63.154 108.9C63.154 109.692 63.682 110 64.254 110H72.922C73.494 110 74.022 109.692 74.022 108.9V103.356C74.022 102.718 73.736 102.256 72.922 102.256C72.108 102.256 71.822 102.718 71.822 103.356V107.8H69.688ZM82.288 102.212V93.984C82.288 93.434 82.024 92.884 81.188 92.884C80.352 92.884 80.088 93.434 80.088 93.984V104.412H86.556V108.9C86.556 109.604 86.864 110 87.656 110C88.448 110 88.756 109.604 88.756 108.9V104.412C89.328 104.412 89.856 104.104 89.856 103.312C89.856 102.52 89.328 102.212 88.756 102.212V95.854C88.756 95.304 88.492 94.754 87.656 94.754C86.82 94.754 86.556 95.304 86.556 95.854V102.212H82.288Z" fill="#505565"/>
<path d="M111.686 95.084C112.324 95.084 112.786 94.644 112.786 93.984C112.786 93.412 112.324 92.884 111.752 92.884H110.432C109.662 92.884 109.486 93.478 109.486 93.984V108.614C109.486 109.626 109.882 110 110.916 110H118.924C119.914 110 120.354 109.648 120.354 108.614V103.686C120.354 102.674 120.134 102.212 119.034 102.212H111.686V95.084ZM118.154 104.412V107.8H111.686V104.412H118.154ZM128.62 102.212V93.984C128.62 93.434 128.356 92.884 127.52 92.884C126.684 92.884 126.42 93.434 126.42 93.984V104.412H132.888V108.9C132.888 109.604 133.196 110 133.988 110C134.78 110 135.088 109.604 135.088 108.9V104.412C135.66 104.412 136.188 104.104 136.188 103.312C136.188 102.52 135.66 102.212 135.088 102.212V95.854C135.088 95.304 134.824 94.754 133.988 94.754C133.152 94.754 132.888 95.304 132.888 95.854V102.212H128.62ZM149.822 107.8C149.184 107.8 148.722 108.24 148.722 108.9C148.722 109.494 149.162 110 149.822 110H150.922C151.582 110 152.022 109.494 152.022 108.9V93.984C152.022 93.412 151.538 92.884 150.922 92.884H142.254C141.638 92.884 141.154 93.412 141.154 93.984V99.616C141.154 100.188 141.638 100.716 142.254 100.716H149.822V107.8ZM143.354 98.516V95.084H149.822V98.516H143.354ZM159.188 95.084C159.826 95.084 160.288 94.644 160.288 93.984C160.288 93.412 159.826 92.884 159.254 92.884H157.934C157.164 92.884 156.988 93.478 156.988 93.984V108.614C156.988 109.626 157.384 110 158.418 110H166.426C167.416 110 167.856 109.648 167.856 108.614V103.686C167.856 102.674 167.636 102.212 166.536 102.212H159.188V95.084ZM165.656 104.412V107.8H159.188V104.412H165.656Z" fill="#505565"/>
<path d="M189.686 92.884C188.476 92.884 187.486 93.874 187.486 95.084V107.8C187.486 109.032 188.432 110 189.686 110H196.154C197.408 110 198.354 109.032 198.354 107.8V95.084C198.354 93.874 197.364 92.884 196.154 92.884H189.686ZM189.686 107.8V95.084H196.154V107.8H189.686ZM211.988 95.084V98.12C211.988 99.088 212.032 99.066 211.306 99.704L208.27 102.322C207.72 102.806 207.698 102.872 207.698 103.598V108.9C207.698 109.604 208.006 110 208.798 110C209.59 110 209.898 109.604 209.898 108.9V104.632C209.898 103.862 209.942 103.818 210.514 103.312L213.594 100.65C214.21 100.122 214.188 100.034 214.188 99.264V92.884H204.42C203.716 92.884 203.32 93.5 203.32 93.984V95.084C203.32 95.568 203.716 96.184 204.42 96.184C205.124 96.184 205.52 95.568 205.52 95.084H211.988ZM227.822 107.8C227.184 107.8 226.722 108.24 226.722 108.9C226.722 109.494 227.162 110 227.822 110H228.922C229.582 110 230.022 109.494 230.022 108.9V93.984C230.022 93.412 229.538 92.884 228.922 92.884H220.254C219.638 92.884 219.154 93.412 219.154 93.984V99.616C219.154 100.188 219.638 100.716 220.254 100.716H227.822V107.8ZM221.354 98.516V95.084H227.822V98.516H221.354ZM238.288 102.212V93.984C238.288 93.434 238.024 92.884 237.188 92.884C236.352 92.884 236.088 93.434 236.088 93.984V104.412H242.556V108.9C242.556 109.604 242.864 110 243.656 110C244.448 110 244.756 109.604 244.756 108.9V104.412C245.328 104.412 245.856 104.104 245.856 103.312C245.856 102.52 245.328 102.212 244.756 102.212V95.854C244.756 95.304 244.492 94.754 243.656 94.754C242.82 94.754 242.556 95.304 242.556 95.854V102.212H238.288Z" fill="#505565"/>
<path d="M274.154 95.084V98.736C274.154 99.968 273.67 100.342 273.054 100.342H268.742C268.17 100.342 267.642 100.65 267.642 101.442C267.642 102.234 268.17 102.542 268.742 102.542H273.054C273.67 102.542 274.154 102.916 274.154 104.148V107.8H266.586C266.014 107.8 265.486 108.108 265.486 108.9C265.486 109.692 266.014 110 266.586 110H274.154C275.408 110 276.354 109.054 276.354 107.8V103.576C276.354 102.696 276.178 102.058 275.496 101.442C276.178 100.826 276.354 100.188 276.354 99.308V95.084C276.354 93.83 275.408 92.884 274.154 92.884H266.586C266.014 92.884 265.486 93.192 265.486 93.984C265.486 94.776 266.014 95.084 266.586 95.084H274.154ZM289.988 107.8C289.35 107.8 288.888 108.24 288.888 108.9C288.888 109.494 289.328 110 289.988 110H291.088C291.748 110 292.188 109.494 292.188 108.9V93.984C292.188 93.412 291.704 92.884 291.088 92.884H282.42C281.804 92.884 281.32 93.412 281.32 93.984V99.616C281.32 100.188 281.804 100.716 282.42 100.716H289.988V107.8ZM283.52 98.516V95.084H289.988V98.516H283.52ZM305.822 95.084V98.12C305.822 99.088 305.866 99.066 305.14 99.704L302.104 102.322C301.554 102.806 301.532 102.872 301.532 103.598V108.9C301.532 109.604 301.84 110 302.632 110C303.424 110 303.732 109.604 303.732 108.9V104.632C303.732 103.862 303.776 103.818 304.348 103.312L307.428 100.65C308.044 100.122 308.022 100.034 308.022 99.264V92.884H298.254C297.55 92.884 297.154 93.5 297.154 93.984V95.084C297.154 95.568 297.55 96.184 298.254 96.184C298.958 96.184 299.354 95.568 299.354 95.084H305.822ZM317.366 95.084H322.756C323.328 95.084 323.856 94.776 323.856 93.984C323.856 93.192 323.328 92.884 322.756 92.884H315.166V102.542H321.656V107.8H316.574C316.222 107.8 315.716 107.492 315.408 107.36L314.748 107.074C314.506 106.964 314.308 106.898 314.044 106.898C313.472 106.898 312.988 107.426 312.988 107.998C312.988 108.768 313.648 108.966 314.242 109.23L315.078 109.604C315.628 109.846 315.958 110 316.53 110H321.414C322.206 110 322.778 109.912 323.328 109.252C323.79 108.702 323.856 108.218 323.856 107.536V102.828C323.856 102.058 323.79 101.53 323.174 100.958C322.646 100.452 322.118 100.342 321.414 100.342H317.366V95.084Z" fill="#505565"/>
<rect x="270.5" y="137.5" width="66" height="39" rx="3.5" stroke="#FFBE0B"/>
<circle cx="320.5" cy="31.5" r="12" stroke="#505565"/>
<circle cx="304.5" cy="31.5" r="12" stroke="#505565"/>
</g>
<g filter="url(#filter1_d)">
<rect x="28" y="24" width="340" height="187" rx="11" fill="#F0F1F3"/>
<rect x="28" y="55" width="340" height="47" fill="#C4C4C4"/>
<rect x="270.5" y="137.5" width="66" height="39" rx="3.5" stroke="#FFBE0B"/>
<path d="M292.159 166.163C291.626 166.163 291.379 166.371 291.379 166.956C291.379 167.541 291.626 167.749 292.159 167.749H295.201C295.734 167.749 295.981 167.541 295.981 166.956C295.981 166.371 295.734 166.163 295.201 166.163H292.159ZM301.515 166.163C300.982 166.163 300.735 166.371 300.735 166.956C300.735 167.541 300.982 167.749 301.515 167.749H304.557C305.09 167.749 305.337 167.541 305.337 166.956C305.337 166.371 305.09 166.163 304.557 166.163H301.515ZM310.872 166.163C310.339 166.163 310.092 166.371 310.092 166.956C310.092 167.541 310.339 167.749 310.872 167.749H313.914C314.447 167.749 314.694 167.541 314.694 166.956C314.694 166.371 314.447 166.163 313.914 166.163H310.872Z" fill="#232735"/>
</g>
<defs>
<filter id="filter0_d" x="0" y="0" width="356" height="203" filterUnits="userSpaceOnUse" color-interpolation-filters="sRGB">
<feFlood flood-opacity="0" result="BackgroundImageFix"/>
<feColorMatrix in="SourceAlpha" type="matrix" values="0 0 0 0 0 0 0 0 0 0 0 0 0 0 0 0 0 0 127 0"/>
<feOffset dy="4"/>
<feGaussianBlur stdDeviation="4"/>
<feColorMatrix type="matrix" values="0 0 0 0 0 0 0 0 0 0 0 0 0 0 0 0 0 0 0.1 0"/>
<feBlend mode="multiply" in2="BackgroundImageFix" result="effect1_dropShadow"/>
<feBlend mode="normal" in="SourceGraphic" in2="effect1_dropShadow" result="shape"/>
</filter>
<filter id="filter1_d" x="20" y="20" width="356" height="203" filterUnits="userSpaceOnUse" color-interpolation-filters="sRGB">
<feFlood flood-opacity="0" result="BackgroundImageFix"/>
<feColorMatrix in="SourceAlpha" type="matrix" values="0 0 0 0 0 0 0 0 0 0 0 0 0 0 0 0 0 0 127 0"/>
<feOffset dy="4"/>
<feGaussianBlur stdDeviation="4"/>
<feColorMatrix type="matrix" values="0 0 0 0 0 0 0 0 0 0 0 0 0 0 0 0 0 0 0.1 0"/>
<feBlend mode="multiply" in2="BackgroundImageFix" result="effect1_dropShadow"/>
<feBlend mode="normal" in="SourceGraphic" in2="effect1_dropShadow" result="shape"/>
</filter>
</defs>
</svg>
