<svg width="376" height="223" viewBox="0 0 376 223" fill="none" xmlns="http://www.w3.org/2000/svg">
<g filter="url(#filter0_d)">
<rect x="28" y="24" width="340" height="187" rx="11" fill="#F0F1F3"/>
<rect x="28" y="55" width="340" height="47" fill="#C4C4C4"/>
</g>
<g filter="url(#filter1_d)">
<rect x="8" y="4" width="340" height="187" rx="11" fill="#FAFAFC"/>
<mask id="mask0" mask-type="alpha" maskUnits="userSpaceOnUse" x="8" y="4" width="340" height="187">
<rect x="8" y="4" width="340" height="187" rx="11" fill="#F5F6FE"/>
</mask>
<g mask="url(#mask0)">
<path d="M235.505 151.25C238.392 146.25 245.608 146.25 248.495 151.25L299.591 239.75C302.477 244.75 298.869 251 293.096 251H190.904C185.131 251 181.523 244.75 184.409 239.75L235.505 151.25Z" stroke="#3A86FF" stroke-width="5"/>
<circle cx="28.5" cy="23.5" r="47" stroke="#FFBE0B" stroke-width="5"/>
</g>
<path d="M284.68 163.174L283.094 160.886H281.469V170.35C281.469 170.766 281.651 171 282.119 171C282.587 171 282.769 170.766 282.769 170.35V162.68H282.795L284.03 164.513V164.721C284.03 165.124 284.212 165.501 284.68 165.501C285.174 165.501 285.33 165.124 285.33 164.721V164.513L286.565 162.68H286.591V170.35C286.591 170.766 286.773 171 287.241 171C287.709 171 287.891 170.766 287.891 170.35V160.886H286.266L284.68 163.174ZM294.036 163.174L292.45 160.886H290.825V170.35C290.825 170.766 291.007 171 291.475 171C291.943 171 292.125 170.766 292.125 170.35V162.68H292.151L293.386 164.513V164.721C293.386 165.124 293.568 165.501 294.036 165.501C294.53 165.501 294.686 165.124 294.686 164.721V164.513L295.921 162.68H295.947V170.35C295.947 170.766 296.129 171 296.597 171C297.065 171 297.247 170.766 297.247 170.35V160.886H295.622L294.036 163.174ZM306.461 162.004C306.539 161.861 306.604 161.705 306.604 161.497C306.604 161.159 306.305 160.886 305.967 160.886C305.642 160.886 305.486 161.12 305.33 161.38L300.468 169.713C300.338 169.921 300.182 170.142 300.182 170.389C300.182 170.727 300.507 171 300.832 171C301.157 171 301.313 170.818 301.469 170.545L306.461 162.004ZM309.538 170.35C309.447 170.662 309.798 171 310.162 171C310.565 171 310.773 170.662 310.864 170.35L311.358 168.79H314.127L314.608 170.35C314.699 170.662 314.907 171 315.31 171C315.674 171 316.025 170.662 315.934 170.35L313.425 161.549C313.334 161.211 313.178 160.886 312.749 160.886C312.333 160.886 312.19 161.198 312.086 161.549L309.538 170.35ZM313.763 167.49H311.722L312.736 163.967H312.762L313.763 167.49ZM318.895 170.35C318.804 170.662 319.155 171 319.519 171C319.922 171 320.13 170.662 320.221 170.35L320.715 168.79H323.484L323.965 170.35C324.056 170.662 324.264 171 324.667 171C325.031 171 325.382 170.662 325.291 170.35L322.782 161.549C322.691 161.211 322.535 160.886 322.106 160.886C321.69 160.886 321.547 161.198 321.443 161.549L318.895 170.35ZM323.12 167.49H321.079L322.093 163.967H322.119L323.12 167.49Z" fill="#8B90A0"/>
<path d="M280.036 144.551H280.734C280.812 144.551 280.875 144.571 280.923 144.61C280.971 144.649 281.007 144.698 281.031 144.758L282.853 149.308C282.895 149.41 282.933 149.521 282.966 149.641C283.002 149.761 283.036 149.885 283.069 150.014C283.096 149.885 283.125 149.761 283.155 149.641C283.188 149.521 283.225 149.41 283.267 149.308L285.081 144.758C285.102 144.707 285.138 144.661 285.188 144.619C285.24 144.574 285.303 144.551 285.378 144.551H286.08L283.452 151H282.664L280.036 144.551ZM292.874 144.551V145.262H289.778V147.404H292.284V148.088H289.778V150.289H292.874V151H288.9V144.551H292.874ZM296.58 144.551C296.658 144.551 296.715 144.562 296.751 144.583C296.79 144.601 296.833 144.64 296.881 144.7L300.616 149.56C300.607 149.482 300.601 149.407 300.598 149.335C300.595 149.26 300.594 149.188 300.594 149.119V144.551H301.359V151H300.918C300.849 151 300.79 150.988 300.742 150.964C300.697 150.94 300.652 150.899 300.607 150.842L296.877 145.987C296.883 146.062 296.887 146.135 296.89 146.207C296.893 146.279 296.895 146.345 296.895 146.405V151H296.13V144.551H296.58ZM309.477 149.668C309.525 149.668 309.569 149.687 309.608 149.726L309.95 150.1C309.686 150.406 309.365 150.644 308.987 150.815C308.612 150.987 308.159 151.072 307.628 151.072C307.163 151.072 306.741 150.993 306.363 150.833C305.985 150.671 305.663 150.446 305.396 150.158C305.129 149.867 304.922 149.519 304.775 149.114C304.628 148.709 304.554 148.264 304.554 147.778C304.554 147.292 304.632 146.846 304.788 146.441C304.947 146.036 305.169 145.688 305.454 145.397C305.739 145.106 306.08 144.881 306.476 144.722C306.875 144.56 307.314 144.479 307.794 144.479C308.268 144.479 308.676 144.553 309.018 144.7C309.363 144.847 309.669 145.046 309.936 145.298L309.653 145.699C309.632 145.729 309.608 145.754 309.581 145.775C309.554 145.793 309.515 145.802 309.464 145.802C309.425 145.802 309.383 145.789 309.338 145.762C309.296 145.732 309.245 145.696 309.185 145.654C309.125 145.612 309.054 145.567 308.973 145.519C308.892 145.471 308.796 145.426 308.685 145.384C308.574 145.342 308.445 145.307 308.298 145.28C308.151 145.25 307.982 145.235 307.79 145.235C307.445 145.235 307.128 145.295 306.84 145.415C306.555 145.532 306.309 145.7 306.102 145.919C305.895 146.138 305.733 146.405 305.616 146.72C305.502 147.035 305.445 147.388 305.445 147.778C305.445 148.18 305.502 148.538 305.616 148.853C305.733 149.168 305.891 149.435 306.089 149.654C306.29 149.87 306.527 150.035 306.8 150.149C307.073 150.263 307.367 150.32 307.682 150.32C307.874 150.32 308.046 150.31 308.199 150.289C308.352 150.265 308.493 150.229 308.622 150.181C308.754 150.133 308.876 150.073 308.987 150.001C309.101 149.926 309.215 149.837 309.329 149.735C309.38 149.69 309.429 149.668 309.477 149.668ZM317.067 144.551V145.262H313.971V147.404H316.478V148.088H313.971V150.289H317.067V151H313.094V144.551H317.067Z" fill="#505565"/>

<path d="M30.233 144.551C30.311 144.551 30.368 144.562 30.404 144.583C30.443 144.601 30.4865 144.64 30.5345 144.7L34.2695 149.56C34.2605 149.482 34.2545 149.407 34.2515 149.335C34.2485 149.26 34.247 149.188 34.247 149.119V144.551H35.012V151H34.571C34.502 151 34.4435 150.988 34.3955 150.964C34.3505 150.94 34.3055 150.899 34.2605 150.842L30.53 145.987C30.536 146.062 30.5405 146.135 30.5435 146.207C30.5465 146.279 30.548 146.345 30.548 146.405V151H29.783V144.551H30.233ZM44.5752 147.778C44.5752 148.261 44.4987 148.705 44.3457 149.11C44.1927 149.512 43.9767 149.858 43.6977 150.149C43.4187 150.44 43.0827 150.667 42.6897 150.829C42.2997 150.988 41.8677 151.068 41.3937 151.068C40.9197 151.068 40.4877 150.988 40.0977 150.829C39.7077 150.667 39.3732 150.44 39.0942 150.149C38.8152 149.858 38.5992 149.512 38.4462 149.11C38.2932 148.705 38.2167 148.261 38.2167 147.778C38.2167 147.295 38.2932 146.852 38.4462 146.45C38.5992 146.045 38.8152 145.697 39.0942 145.406C39.3732 145.112 39.7077 144.884 40.0977 144.722C40.4877 144.56 40.9197 144.479 41.3937 144.479C41.8677 144.479 42.2997 144.56 42.6897 144.722C43.0827 144.884 43.4187 145.112 43.6977 145.406C43.9767 145.697 44.1927 146.045 44.3457 146.45C44.4987 146.852 44.5752 147.295 44.5752 147.778ZM43.6797 147.778C43.6797 147.382 43.6257 147.026 43.5177 146.711C43.4097 146.396 43.2567 146.131 43.0587 145.915C42.8607 145.696 42.6207 145.528 42.3387 145.411C42.0567 145.294 41.7417 145.235 41.3937 145.235C41.0487 145.235 40.7352 145.294 40.4532 145.411C40.1712 145.528 39.9297 145.696 39.7287 145.915C39.5307 146.131 39.3777 146.396 39.2697 146.711C39.1617 147.026 39.1077 147.382 39.1077 147.778C39.1077 148.174 39.1617 148.529 39.2697 148.844C39.3777 149.156 39.5307 149.422 39.7287 149.641C39.9297 149.857 40.1712 150.023 40.4532 150.14C40.7352 150.254 41.0487 150.311 41.3937 150.311C41.7417 150.311 42.0567 150.254 42.3387 150.14C42.6207 150.023 42.8607 149.857 43.0587 149.641C43.2567 149.422 43.4097 149.156 43.5177 148.844C43.6257 148.529 43.6797 148.174 43.6797 147.778ZM50.9389 148.669C50.9809 148.741 51.0169 148.817 51.0469 148.898C51.0799 148.976 51.1114 149.056 51.1414 149.137C51.1714 149.053 51.2029 148.973 51.2359 148.898C51.2689 148.82 51.3064 148.742 51.3484 148.664L53.5309 144.7C53.5699 144.631 53.6104 144.589 53.6524 144.574C53.6944 144.559 53.7544 144.551 53.8324 144.551H54.4759V151H53.7109V146.261C53.7109 146.198 53.7124 146.131 53.7154 146.059C53.7184 145.987 53.7229 145.913 53.7289 145.838L51.5194 149.87C51.4444 150.005 51.3394 150.073 51.2044 150.073H51.0784C50.9434 150.073 50.8384 150.005 50.7634 149.87L48.5044 145.825C48.5134 145.903 48.5194 145.979 48.5224 146.054C48.5284 146.129 48.5314 146.198 48.5314 146.261V151H47.7664V144.551H48.4099C48.4879 144.551 48.5479 144.559 48.5899 144.574C48.6319 144.589 48.6724 144.631 48.7114 144.7L50.9389 148.669ZM58.0457 151V144.551H60.1022C60.4982 144.551 60.8387 144.59 61.1237 144.668C61.4117 144.746 61.6472 144.857 61.8302 145.001C62.0162 145.145 62.1527 145.322 62.2397 145.532C62.3297 145.739 62.3747 145.973 62.3747 146.234C62.3747 146.393 62.3492 146.546 62.2982 146.693C62.2502 146.84 62.1752 146.977 62.0732 147.103C61.9742 147.229 61.8482 147.341 61.6952 147.44C61.5452 147.539 61.3682 147.62 61.1642 147.683C61.6352 147.776 61.9907 147.946 62.2307 148.192C62.4707 148.438 62.5907 148.762 62.5907 149.164C62.5907 149.437 62.5397 149.686 62.4377 149.911C62.3387 150.136 62.1917 150.329 61.9967 150.491C61.8047 150.653 61.5677 150.779 61.2857 150.869C61.0067 150.956 60.6872 151 60.3272 151H58.0457ZM58.9187 148.061V150.307H60.3137C60.5627 150.307 60.7757 150.278 60.9527 150.221C61.1327 150.164 61.2797 150.085 61.3937 149.983C61.5107 149.878 61.5962 149.755 61.6502 149.614C61.7042 149.47 61.7312 149.312 61.7312 149.141C61.7312 148.808 61.6127 148.546 61.3757 148.354C61.1417 148.159 60.7862 148.061 60.3092 148.061H58.9187ZM58.9187 147.44H60.0707C60.3167 147.44 60.5297 147.413 60.7097 147.359C60.8897 147.305 61.0382 147.23 61.1552 147.134C61.2752 147.038 61.3637 146.923 61.4207 146.788C61.4777 146.65 61.5062 146.5 61.5062 146.338C61.5062 145.96 61.3922 145.682 61.1642 145.505C60.9362 145.328 60.5822 145.24 60.1022 145.24H58.9187V147.44ZM66.8313 148.309V151H65.9628V144.551H67.7853C68.1933 144.551 68.5458 144.593 68.8428 144.677C69.1398 144.758 69.3843 144.877 69.5763 145.033C69.7713 145.189 69.9153 145.378 70.0083 145.6C70.1013 145.819 70.1478 146.065 70.1478 146.338C70.1478 146.566 70.1118 146.779 70.0398 146.977C69.9678 147.175 69.8628 147.353 69.7248 147.512C69.5898 147.668 69.4233 147.802 69.2253 147.913C69.0303 148.024 68.8083 148.108 68.5593 148.165C68.6673 148.228 68.7633 148.319 68.8473 148.439L70.7283 151H69.9543C69.7953 151 69.6783 150.938 69.6033 150.815L67.9293 148.511C67.8783 148.439 67.8228 148.388 67.7628 148.358C67.7028 148.325 67.6128 148.309 67.4928 148.309H66.8313ZM66.8313 147.674H67.7448C67.9998 147.674 68.2233 147.644 68.4153 147.584C68.6103 147.521 68.7723 147.434 68.9013 147.323C69.0333 147.209 69.1323 147.074 69.1983 146.918C69.2643 146.762 69.2973 146.59 69.2973 146.401C69.2973 146.017 69.1698 145.727 68.9148 145.532C68.6628 145.337 68.2863 145.24 67.7853 145.24H66.8313V147.674ZM77.6383 144.551V145.262H74.5423V147.404H77.0488V148.088H74.5423V150.289H77.6383V151H73.6648V144.551H77.6383Z" fill="#505565"/>
<rect x="19.5" y="80.5" width="317" height="39" rx="3.5" stroke="#FFBE0B"/>
<circle cx="320.5" cy="31.5" r="12" stroke="#505565"/>
<circle cx="304.5" cy="31.5" r="12" stroke="#505565"/>
</g>
<defs>
<filter id="filter0_d" x="20" y="20" width="356" height="203" filterUnits="userSpaceOnUse" color-interpolation-filters="sRGB">
<feFlood flood-opacity="0" result="BackgroundImageFix"/>
<feColorMatrix in="SourceAlpha" type="matrix" values="0 0 0 0 0 0 0 0 0 0 0 0 0 0 0 0 0 0 127 0"/>
<feOffset dy="4"/>
<feGaussianBlur stdDeviation="4"/>
<feColorMatrix type="matrix" values="0 0 0 0 0 0 0 0 0 0 0 0 0 0 0 0 0 0 0.1 0"/>
<feBlend mode="multiply" in2="BackgroundImageFix" result="effect1_dropShadow"/>
<feBlend mode="normal" in="SourceGraphic" in2="effect1_dropShadow" result="shape"/>
</filter>
<filter id="filter1_d" x="0" y="0" width="356" height="203" filterUnits="userSpaceOnUse" color-interpolation-filters="sRGB">
<feFlood flood-opacity="0" result="BackgroundImageFix"/>
<feColorMatrix in="SourceAlpha" type="matrix" values="0 0 0 0 0 0 0 0 0 0 0 0 0 0 0 0 0 0 127 0"/>
<feOffset dy="4"/>
<feGaussianBlur stdDeviation="4"/>
<feColorMatrix type="matrix" values="0 0 0 0 0 0 0 0 0 0 0 0 0 0 0 0 0 0 0.1 0"/>
<feBlend mode="multiply" in2="BackgroundImageFix" result="effect1_dropShadow"/>
<feBlend mode="normal" in="SourceGraphic" in2="effect1_dropShadow" result="shape"/>
</filter>
</defs>
</svg>
