<svg width="376" height="223" viewBox="0 0 376 223" fill="none" xmlns="http://www.w3.org/2000/svg">
<g filter="url(#filter0_d)">
<rect x="28" y="24" width="340" height="187" rx="11" fill="#F0F1F3"/>
<rect x="28" y="55" width="340" height="47" fill="#C4C4C4"/>
</g>
<g filter="url(#filter1_d)">
<rect x="8" y="4" width="340" height="187" rx="11" fill="#FAFAFC"/>
<mask id="mask0" mask-type="alpha" maskUnits="userSpaceOnUse" x="8" y="4" width="340" height="187">
<rect x="8" y="4" width="340" height="187" rx="11" fill="#F5F6FE"/>
</mask>
<g mask="url(#mask0)">
<path d="M235.505 151.25C238.392 146.25 245.608 146.25 248.495 151.25L299.591 239.75C302.477 244.75 298.869 251 293.096 251H190.904C185.131 251 181.523 244.75 184.409 239.75L235.505 151.25Z" stroke="#3A86FF" stroke-width="5"/>
<circle cx="28.5" cy="23.5" r="47" stroke="#FFBE0B" stroke-width="5"/>
</g>
<path d="M284.68 163.174L283.094 160.886H281.469V170.35C281.469 170.766 281.651 171 282.119 171C282.587 171 282.769 170.766 282.769 170.35V162.68H282.795L284.03 164.513V164.721C284.03 165.124 284.212 165.501 284.68 165.501C285.174 165.501 285.33 165.124 285.33 164.721V164.513L286.565 162.68H286.591V170.35C286.591 170.766 286.773 171 287.241 171C287.709 171 287.891 170.766 287.891 170.35V160.886H286.266L284.68 163.174ZM294.036 163.174L292.45 160.886H290.825V170.35C290.825 170.766 291.007 171 291.475 171C291.943 171 292.125 170.766 292.125 170.35V162.68H292.151L293.386 164.513V164.721C293.386 165.124 293.568 165.501 294.036 165.501C294.53 165.501 294.686 165.124 294.686 164.721V164.513L295.921 162.68H295.947V170.35C295.947 170.766 296.129 171 296.597 171C297.065 171 297.247 170.766 297.247 170.35V160.886H295.622L294.036 163.174ZM306.461 162.004C306.539 161.861 306.604 161.705 306.604 161.497C306.604 161.159 306.305 160.886 305.967 160.886C305.642 160.886 305.486 161.12 305.33 161.38L300.468 169.713C300.338 169.921 300.182 170.142 300.182 170.389C300.182 170.727 300.507 171 300.832 171C301.157 171 301.313 170.818 301.469 170.545L306.461 162.004ZM309.538 170.35C309.447 170.662 309.798 171 310.162 171C310.565 171 310.773 170.662 310.864 170.35L311.358 168.79H314.127L314.608 170.35C314.699 170.662 314.907 171 315.31 171C315.674 171 316.025 170.662 315.934 170.35L313.425 161.549C313.334 161.211 313.178 160.886 312.749 160.886C312.333 160.886 312.19 161.198 312.086 161.549L309.538 170.35ZM313.763 167.49H311.722L312.736 163.967H312.762L313.763 167.49ZM318.895 170.35C318.804 170.662 319.155 171 319.519 171C319.922 171 320.13 170.662 320.221 170.35L320.715 168.79H323.484L323.965 170.35C324.056 170.662 324.264 171 324.667 171C325.031 171 325.382 170.662 325.291 170.35L322.782 161.549C322.691 161.211 322.535 160.886 322.106 160.886C321.69 160.886 321.547 161.198 321.443 161.549L318.895 170.35ZM323.12 167.49H321.079L322.093 163.967H322.119L323.12 167.49Z" fill="#8B90A0"/>
<path d="M280.036 144.551H280.734C280.812 144.551 280.875 144.571 280.923 144.61C280.971 144.649 281.007 144.698 281.031 144.758L282.853 149.308C282.895 149.41 282.933 149.521 282.966 149.641C283.002 149.761 283.036 149.885 283.069 150.014C283.096 149.885 283.125 149.761 283.155 149.641C283.188 149.521 283.225 149.41 283.267 149.308L285.081 144.758C285.102 144.707 285.138 144.661 285.188 144.619C285.24 144.574 285.303 144.551 285.378 144.551H286.08L283.452 151H282.664L280.036 144.551ZM292.874 144.551V145.262H289.778V147.404H292.284V148.088H289.778V150.289H292.874V151H288.9V144.551H292.874ZM296.58 144.551C296.658 144.551 296.715 144.562 296.751 144.583C296.79 144.601 296.833 144.64 296.881 144.7L300.616 149.56C300.607 149.482 300.601 149.407 300.598 149.335C300.595 149.26 300.594 149.188 300.594 149.119V144.551H301.359V151H300.918C300.849 151 300.79 150.988 300.742 150.964C300.697 150.94 300.652 150.899 300.607 150.842L296.877 145.987C296.883 146.062 296.887 146.135 296.89 146.207C296.893 146.279 296.895 146.345 296.895 146.405V151H296.13V144.551H296.58ZM309.477 149.668C309.525 149.668 309.569 149.687 309.608 149.726L309.95 150.1C309.686 150.406 309.365 150.644 308.987 150.815C308.612 150.987 308.159 151.072 307.628 151.072C307.163 151.072 306.741 150.993 306.363 150.833C305.985 150.671 305.663 150.446 305.396 150.158C305.129 149.867 304.922 149.519 304.775 149.114C304.628 148.709 304.554 148.264 304.554 147.778C304.554 147.292 304.632 146.846 304.788 146.441C304.947 146.036 305.169 145.688 305.454 145.397C305.739 145.106 306.08 144.881 306.476 144.722C306.875 144.56 307.314 144.479 307.794 144.479C308.268 144.479 308.676 144.553 309.018 144.7C309.363 144.847 309.669 145.046 309.936 145.298L309.653 145.699C309.632 145.729 309.608 145.754 309.581 145.775C309.554 145.793 309.515 145.802 309.464 145.802C309.425 145.802 309.383 145.789 309.338 145.762C309.296 145.732 309.245 145.696 309.185 145.654C309.125 145.612 309.054 145.567 308.973 145.519C308.892 145.471 308.796 145.426 308.685 145.384C308.574 145.342 308.445 145.307 308.298 145.28C308.151 145.25 307.982 145.235 307.79 145.235C307.445 145.235 307.128 145.295 306.84 145.415C306.555 145.532 306.309 145.7 306.102 145.919C305.895 146.138 305.733 146.405 305.616 146.72C305.502 147.035 305.445 147.388 305.445 147.778C305.445 148.18 305.502 148.538 305.616 148.853C305.733 149.168 305.891 149.435 306.089 149.654C306.29 149.87 306.527 150.035 306.8 150.149C307.073 150.263 307.367 150.32 307.682 150.32C307.874 150.32 308.046 150.31 308.199 150.289C308.352 150.265 308.493 150.229 308.622 150.181C308.754 150.133 308.876 150.073 308.987 150.001C309.101 149.926 309.215 149.837 309.329 149.735C309.38 149.69 309.429 149.668 309.477 149.668ZM317.067 144.551V145.262H313.971V147.404H316.478V148.088H313.971V150.289H317.067V151H313.094V144.551H317.067Z" fill="#505565"/>
<path d="M32.159 165.163C31.626 165.163 31.379 165.371 31.379 165.956C31.379 166.541 31.626 166.749 32.159 166.749H35.201C35.734 166.749 35.981 166.541 35.981 165.956C35.981 165.371 35.734 165.163 35.201 165.163H32.159ZM41.5154 165.163C40.9824 165.163 40.7354 165.371 40.7354 165.956C40.7354 166.541 40.9824 166.749 41.5154 166.749H44.5574C45.0904 166.749 45.3374 166.541 45.3374 165.956C45.3374 165.371 45.0904 165.163 44.5574 165.163H41.5154ZM50.8719 165.163C50.3389 165.163 50.0919 165.371 50.0919 165.956C50.0919 166.541 50.3389 166.749 50.8719 166.749H53.9139C54.4469 166.749 54.6939 166.541 54.6939 165.956C54.6939 165.371 54.4469 165.163 53.9139 165.163H50.8719ZM60.2283 165.163C59.6953 165.163 59.4483 165.371 59.4483 165.956C59.4483 166.541 59.6953 166.749 60.2283 166.749H63.2703C63.8033 166.749 64.0503 166.541 64.0503 165.956C64.0503 165.371 63.8033 165.163 63.2703 165.163H60.2283ZM78.9412 165.163C78.4082 165.163 78.1612 165.371 78.1612 165.956C78.1612 166.541 78.4082 166.749 78.9412 166.749H81.9832C82.5162 166.749 82.7632 166.541 82.7632 165.956C82.7632 165.371 82.5162 165.163 81.9832 165.163H78.9412ZM88.2977 165.163C87.7647 165.163 87.5177 165.371 87.5177 165.956C87.5177 166.541 87.7647 166.749 88.2977 166.749H91.3397C91.8727 166.749 92.1197 166.541 92.1197 165.956C92.1197 165.371 91.8727 165.163 91.3397 165.163H88.2977ZM97.6541 165.163C97.1211 165.163 96.8741 165.371 96.8741 165.956C96.8741 166.541 97.1211 166.749 97.6541 166.749H100.696C101.229 166.749 101.476 166.541 101.476 165.956C101.476 165.371 101.229 165.163 100.696 165.163H97.6541ZM107.011 165.163C106.478 165.163 106.231 165.371 106.231 165.956C106.231 166.541 106.478 166.749 107.011 166.749H110.053C110.586 166.749 110.833 166.541 110.833 165.956C110.833 165.371 110.586 165.163 110.053 165.163H107.011ZM116.367 165.163C115.834 165.163 115.587 165.371 115.587 165.956C115.587 166.541 115.834 166.749 116.367 166.749H119.409C119.942 166.749 120.189 166.541 120.189 165.956C120.189 165.371 119.942 165.163 119.409 165.163H116.367Z" fill="#8B90A0"/>
<path d="M30.233 144.551C30.311 144.551 30.368 144.562 30.404 144.583C30.443 144.601 30.4865 144.64 30.5345 144.7L34.2695 149.56C34.2605 149.482 34.2545 149.407 34.2515 149.335C34.2485 149.26 34.247 149.188 34.247 149.119V144.551H35.012V151H34.571C34.502 151 34.4435 150.988 34.3955 150.964C34.3505 150.94 34.3055 150.899 34.2605 150.842L30.53 145.987C30.536 146.062 30.5405 146.135 30.5435 146.207C30.5465 146.279 30.548 146.345 30.548 146.405V151H29.783V144.551H30.233ZM44.5752 147.778C44.5752 148.261 44.4987 148.705 44.3457 149.11C44.1927 149.512 43.9767 149.858 43.6977 150.149C43.4187 150.44 43.0827 150.667 42.6897 150.829C42.2997 150.988 41.8677 151.068 41.3937 151.068C40.9197 151.068 40.4877 150.988 40.0977 150.829C39.7077 150.667 39.3732 150.44 39.0942 150.149C38.8152 149.858 38.5992 149.512 38.4462 149.11C38.2932 148.705 38.2167 148.261 38.2167 147.778C38.2167 147.295 38.2932 146.852 38.4462 146.45C38.5992 146.045 38.8152 145.697 39.0942 145.406C39.3732 145.112 39.7077 144.884 40.0977 144.722C40.4877 144.56 40.9197 144.479 41.3937 144.479C41.8677 144.479 42.2997 144.56 42.6897 144.722C43.0827 144.884 43.4187 145.112 43.6977 145.406C43.9767 145.697 44.1927 146.045 44.3457 146.45C44.4987 146.852 44.5752 147.295 44.5752 147.778ZM43.6797 147.778C43.6797 147.382 43.6257 147.026 43.5177 146.711C43.4097 146.396 43.2567 146.131 43.0587 145.915C42.8607 145.696 42.6207 145.528 42.3387 145.411C42.0567 145.294 41.7417 145.235 41.3937 145.235C41.0487 145.235 40.7352 145.294 40.4532 145.411C40.1712 145.528 39.9297 145.696 39.7287 145.915C39.5307 146.131 39.3777 146.396 39.2697 146.711C39.1617 147.026 39.1077 147.382 39.1077 147.778C39.1077 148.174 39.1617 148.529 39.2697 148.844C39.3777 149.156 39.5307 149.422 39.7287 149.641C39.9297 149.857 40.1712 150.023 40.4532 150.14C40.7352 150.254 41.0487 150.311 41.3937 150.311C41.7417 150.311 42.0567 150.254 42.3387 150.14C42.6207 150.023 42.8607 149.857 43.0587 149.641C43.2567 149.422 43.4097 149.156 43.5177 148.844C43.6257 148.529 43.6797 148.174 43.6797 147.778ZM50.9389 148.669C50.9809 148.741 51.0169 148.817 51.0469 148.898C51.0799 148.976 51.1114 149.056 51.1414 149.137C51.1714 149.053 51.2029 148.973 51.2359 148.898C51.2689 148.82 51.3064 148.742 51.3484 148.664L53.5309 144.7C53.5699 144.631 53.6104 144.589 53.6524 144.574C53.6944 144.559 53.7544 144.551 53.8324 144.551H54.4759V151H53.7109V146.261C53.7109 146.198 53.7124 146.131 53.7154 146.059C53.7184 145.987 53.7229 145.913 53.7289 145.838L51.5194 149.87C51.4444 150.005 51.3394 150.073 51.2044 150.073H51.0784C50.9434 150.073 50.8384 150.005 50.7634 149.87L48.5044 145.825C48.5134 145.903 48.5194 145.979 48.5224 146.054C48.5284 146.129 48.5314 146.198 48.5314 146.261V151H47.7664V144.551H48.4099C48.4879 144.551 48.5479 144.559 48.5899 144.574C48.6319 144.589 48.6724 144.631 48.7114 144.7L50.9389 148.669ZM58.0457 151V144.551H60.1022C60.4982 144.551 60.8387 144.59 61.1237 144.668C61.4117 144.746 61.6472 144.857 61.8302 145.001C62.0162 145.145 62.1527 145.322 62.2397 145.532C62.3297 145.739 62.3747 145.973 62.3747 146.234C62.3747 146.393 62.3492 146.546 62.2982 146.693C62.2502 146.84 62.1752 146.977 62.0732 147.103C61.9742 147.229 61.8482 147.341 61.6952 147.44C61.5452 147.539 61.3682 147.62 61.1642 147.683C61.6352 147.776 61.9907 147.946 62.2307 148.192C62.4707 148.438 62.5907 148.762 62.5907 149.164C62.5907 149.437 62.5397 149.686 62.4377 149.911C62.3387 150.136 62.1917 150.329 61.9967 150.491C61.8047 150.653 61.5677 150.779 61.2857 150.869C61.0067 150.956 60.6872 151 60.3272 151H58.0457ZM58.9187 148.061V150.307H60.3137C60.5627 150.307 60.7757 150.278 60.9527 150.221C61.1327 150.164 61.2797 150.085 61.3937 149.983C61.5107 149.878 61.5962 149.755 61.6502 149.614C61.7042 149.47 61.7312 149.312 61.7312 149.141C61.7312 148.808 61.6127 148.546 61.3757 148.354C61.1417 148.159 60.7862 148.061 60.3092 148.061H58.9187ZM58.9187 147.44H60.0707C60.3167 147.44 60.5297 147.413 60.7097 147.359C60.8897 147.305 61.0382 147.23 61.1552 147.134C61.2752 147.038 61.3637 146.923 61.4207 146.788C61.4777 146.65 61.5062 146.5 61.5062 146.338C61.5062 145.96 61.3922 145.682 61.1642 145.505C60.9362 145.328 60.5822 145.24 60.1022 145.24H58.9187V147.44ZM66.8313 148.309V151H65.9628V144.551H67.7853C68.1933 144.551 68.5458 144.593 68.8428 144.677C69.1398 144.758 69.3843 144.877 69.5763 145.033C69.7713 145.189 69.9153 145.378 70.0083 145.6C70.1013 145.819 70.1478 146.065 70.1478 146.338C70.1478 146.566 70.1118 146.779 70.0398 146.977C69.9678 147.175 69.8628 147.353 69.7248 147.512C69.5898 147.668 69.4233 147.802 69.2253 147.913C69.0303 148.024 68.8083 148.108 68.5593 148.165C68.6673 148.228 68.7633 148.319 68.8473 148.439L70.7283 151H69.9543C69.7953 151 69.6783 150.938 69.6033 150.815L67.9293 148.511C67.8783 148.439 67.8228 148.388 67.7628 148.358C67.7028 148.325 67.6128 148.309 67.4928 148.309H66.8313ZM66.8313 147.674H67.7448C67.9998 147.674 68.2233 147.644 68.4153 147.584C68.6103 147.521 68.7723 147.434 68.9013 147.323C69.0333 147.209 69.1323 147.074 69.1983 146.918C69.2643 146.762 69.2973 146.59 69.2973 146.401C69.2973 146.017 69.1698 145.727 68.9148 145.532C68.6628 145.337 68.2863 145.24 67.7853 145.24H66.8313V147.674ZM77.6383 144.551V145.262H74.5423V147.404H77.0488V148.088H74.5423V150.289H77.6383V151H73.6648V144.551H77.6383Z" fill="#505565"/>
<path d="M31.75 108.174C31.596 108.416 31.486 108.658 31.486 108.966C31.486 109.538 32.014 110 32.564 110C33.29 110 33.532 109.45 33.84 108.922L36.92 103.664L40 108.922C40.308 109.45 40.55 110 41.276 110C41.826 110 42.354 109.538 42.354 108.966C42.354 108.658 42.244 108.416 42.09 108.174L38.174 101.442L42.09 94.71C42.244 94.468 42.354 94.226 42.354 93.918C42.354 93.346 41.826 92.884 41.276 92.884C40.55 92.884 40.308 93.434 40 93.962L36.92 99.22L33.84 93.962C33.532 93.434 33.29 92.884 32.564 92.884C32.014 92.884 31.486 93.346 31.486 93.918C31.486 94.226 31.596 94.468 31.75 94.71L35.666 101.442L31.75 108.174ZM47.584 108.174C47.43 108.416 47.32 108.658 47.32 108.966C47.32 109.538 47.848 110 48.398 110C49.124 110 49.366 109.45 49.674 108.922L52.754 103.664L55.834 108.922C56.142 109.45 56.384 110 57.11 110C57.66 110 58.188 109.538 58.188 108.966C58.188 108.658 58.078 108.416 57.924 108.174L54.008 101.442L57.924 94.71C58.078 94.468 58.188 94.226 58.188 93.918C58.188 93.346 57.66 92.884 57.11 92.884C56.384 92.884 56.142 93.434 55.834 93.962L52.754 99.22L49.674 93.962C49.366 93.434 49.124 92.884 48.398 92.884C47.848 92.884 47.32 93.346 47.32 93.918C47.32 94.226 47.43 94.468 47.584 94.71L51.5 101.442L47.584 108.174ZM63.418 108.174C63.264 108.416 63.154 108.658 63.154 108.966C63.154 109.538 63.682 110 64.232 110C64.958 110 65.2 109.45 65.508 108.922L68.588 103.664L71.668 108.922C71.976 109.45 72.218 110 72.944 110C73.494 110 74.022 109.538 74.022 108.966C74.022 108.658 73.912 108.416 73.758 108.174L69.842 101.442L73.758 94.71C73.912 94.468 74.022 94.226 74.022 93.918C74.022 93.346 73.494 92.884 72.944 92.884C72.218 92.884 71.976 93.434 71.668 93.962L68.588 99.22L65.508 93.962C65.2 93.434 64.958 92.884 64.232 92.884C63.682 92.884 63.154 93.346 63.154 93.918C63.154 94.226 63.264 94.468 63.418 94.71L67.334 101.442L63.418 108.174ZM79.252 108.174C79.098 108.416 78.988 108.658 78.988 108.966C78.988 109.538 79.516 110 80.066 110C80.792 110 81.034 109.45 81.342 108.922L84.422 103.664L87.502 108.922C87.81 109.45 88.052 110 88.778 110C89.328 110 89.856 109.538 89.856 108.966C89.856 108.658 89.746 108.416 89.592 108.174L85.676 101.442L89.592 94.71C89.746 94.468 89.856 94.226 89.856 93.918C89.856 93.346 89.328 92.884 88.778 92.884C88.052 92.884 87.81 93.434 87.502 93.962L84.422 99.22L81.342 93.962C81.034 93.434 80.792 92.884 80.066 92.884C79.516 92.884 78.988 93.346 78.988 93.918C78.988 94.226 79.098 94.468 79.252 94.71L83.168 101.442L79.252 108.174Z" fill="#505565"/>
<path d="M109.75 108.174C109.596 108.416 109.486 108.658 109.486 108.966C109.486 109.538 110.014 110 110.564 110C111.29 110 111.532 109.45 111.84 108.922L114.92 103.664L118 108.922C118.308 109.45 118.55 110 119.276 110C119.826 110 120.354 109.538 120.354 108.966C120.354 108.658 120.244 108.416 120.09 108.174L116.174 101.442L120.09 94.71C120.244 94.468 120.354 94.226 120.354 93.918C120.354 93.346 119.826 92.884 119.276 92.884C118.55 92.884 118.308 93.434 118 93.962L114.92 99.22L111.84 93.962C111.532 93.434 111.29 92.884 110.564 92.884C110.014 92.884 109.486 93.346 109.486 93.918C109.486 94.226 109.596 94.468 109.75 94.71L113.666 101.442L109.75 108.174ZM125.584 108.174C125.43 108.416 125.32 108.658 125.32 108.966C125.32 109.538 125.848 110 126.398 110C127.124 110 127.366 109.45 127.674 108.922L130.754 103.664L133.834 108.922C134.142 109.45 134.384 110 135.11 110C135.66 110 136.188 109.538 136.188 108.966C136.188 108.658 136.078 108.416 135.924 108.174L132.008 101.442L135.924 94.71C136.078 94.468 136.188 94.226 136.188 93.918C136.188 93.346 135.66 92.884 135.11 92.884C134.384 92.884 134.142 93.434 133.834 93.962L130.754 99.22L127.674 93.962C127.366 93.434 127.124 92.884 126.398 92.884C125.848 92.884 125.32 93.346 125.32 93.918C125.32 94.226 125.43 94.468 125.584 94.71L129.5 101.442L125.584 108.174ZM141.418 108.174C141.264 108.416 141.154 108.658 141.154 108.966C141.154 109.538 141.682 110 142.232 110C142.958 110 143.2 109.45 143.508 108.922L146.588 103.664L149.668 108.922C149.976 109.45 150.218 110 150.944 110C151.494 110 152.022 109.538 152.022 108.966C152.022 108.658 151.912 108.416 151.758 108.174L147.842 101.442L151.758 94.71C151.912 94.468 152.022 94.226 152.022 93.918C152.022 93.346 151.494 92.884 150.944 92.884C150.218 92.884 149.976 93.434 149.668 93.962L146.588 99.22L143.508 93.962C143.2 93.434 142.958 92.884 142.232 92.884C141.682 92.884 141.154 93.346 141.154 93.918C141.154 94.226 141.264 94.468 141.418 94.71L145.334 101.442L141.418 108.174ZM157.252 108.174C157.098 108.416 156.988 108.658 156.988 108.966C156.988 109.538 157.516 110 158.066 110C158.792 110 159.034 109.45 159.342 108.922L162.422 103.664L165.502 108.922C165.81 109.45 166.052 110 166.778 110C167.328 110 167.856 109.538 167.856 108.966C167.856 108.658 167.746 108.416 167.592 108.174L163.676 101.442L167.592 94.71C167.746 94.468 167.856 94.226 167.856 93.918C167.856 93.346 167.328 92.884 166.778 92.884C166.052 92.884 165.81 93.434 165.502 93.962L162.422 99.22L159.342 93.962C159.034 93.434 158.792 92.884 158.066 92.884C157.516 92.884 156.988 93.346 156.988 93.918C156.988 94.226 157.098 94.468 157.252 94.71L161.168 101.442L157.252 108.174Z" fill="#505565"/>
<path d="M187.75 108.174C187.596 108.416 187.486 108.658 187.486 108.966C187.486 109.538 188.014 110 188.564 110C189.29 110 189.532 109.45 189.84 108.922L192.92 103.664L196 108.922C196.308 109.45 196.55 110 197.276 110C197.826 110 198.354 109.538 198.354 108.966C198.354 108.658 198.244 108.416 198.09 108.174L194.174 101.442L198.09 94.71C198.244 94.468 198.354 94.226 198.354 93.918C198.354 93.346 197.826 92.884 197.276 92.884C196.55 92.884 196.308 93.434 196 93.962L192.92 99.22L189.84 93.962C189.532 93.434 189.29 92.884 188.564 92.884C188.014 92.884 187.486 93.346 187.486 93.918C187.486 94.226 187.596 94.468 187.75 94.71L191.666 101.442L187.75 108.174ZM203.584 108.174C203.43 108.416 203.32 108.658 203.32 108.966C203.32 109.538 203.848 110 204.398 110C205.124 110 205.366 109.45 205.674 108.922L208.754 103.664L211.834 108.922C212.142 109.45 212.384 110 213.11 110C213.66 110 214.188 109.538 214.188 108.966C214.188 108.658 214.078 108.416 213.924 108.174L210.008 101.442L213.924 94.71C214.078 94.468 214.188 94.226 214.188 93.918C214.188 93.346 213.66 92.884 213.11 92.884C212.384 92.884 212.142 93.434 211.834 93.962L208.754 99.22L205.674 93.962C205.366 93.434 205.124 92.884 204.398 92.884C203.848 92.884 203.32 93.346 203.32 93.918C203.32 94.226 203.43 94.468 203.584 94.71L207.5 101.442L203.584 108.174ZM219.418 108.174C219.264 108.416 219.154 108.658 219.154 108.966C219.154 109.538 219.682 110 220.232 110C220.958 110 221.2 109.45 221.508 108.922L224.588 103.664L227.668 108.922C227.976 109.45 228.218 110 228.944 110C229.494 110 230.022 109.538 230.022 108.966C230.022 108.658 229.912 108.416 229.758 108.174L225.842 101.442L229.758 94.71C229.912 94.468 230.022 94.226 230.022 93.918C230.022 93.346 229.494 92.884 228.944 92.884C228.218 92.884 227.976 93.434 227.668 93.962L224.588 99.22L221.508 93.962C221.2 93.434 220.958 92.884 220.232 92.884C219.682 92.884 219.154 93.346 219.154 93.918C219.154 94.226 219.264 94.468 219.418 94.71L223.334 101.442L219.418 108.174ZM235.252 108.174C235.098 108.416 234.988 108.658 234.988 108.966C234.988 109.538 235.516 110 236.066 110C236.792 110 237.034 109.45 237.342 108.922L240.422 103.664L243.502 108.922C243.81 109.45 244.052 110 244.778 110C245.328 110 245.856 109.538 245.856 108.966C245.856 108.658 245.746 108.416 245.592 108.174L241.676 101.442L245.592 94.71C245.746 94.468 245.856 94.226 245.856 93.918C245.856 93.346 245.328 92.884 244.778 92.884C244.052 92.884 243.81 93.434 243.502 93.962L240.422 99.22L237.342 93.962C237.034 93.434 236.792 92.884 236.066 92.884C235.516 92.884 234.988 93.346 234.988 93.918C234.988 94.226 235.098 94.468 235.252 94.71L239.168 101.442L235.252 108.174Z" fill="#505565"/>
<path d="M265.75 108.174C265.596 108.416 265.486 108.658 265.486 108.966C265.486 109.538 266.014 110 266.564 110C267.29 110 267.532 109.45 267.84 108.922L270.92 103.664L274 108.922C274.308 109.45 274.55 110 275.276 110C275.826 110 276.354 109.538 276.354 108.966C276.354 108.658 276.244 108.416 276.09 108.174L272.174 101.442L276.09 94.71C276.244 94.468 276.354 94.226 276.354 93.918C276.354 93.346 275.826 92.884 275.276 92.884C274.55 92.884 274.308 93.434 274 93.962L270.92 99.22L267.84 93.962C267.532 93.434 267.29 92.884 266.564 92.884C266.014 92.884 265.486 93.346 265.486 93.918C265.486 94.226 265.596 94.468 265.75 94.71L269.666 101.442L265.75 108.174ZM281.584 108.174C281.43 108.416 281.32 108.658 281.32 108.966C281.32 109.538 281.848 110 282.398 110C283.124 110 283.366 109.45 283.674 108.922L286.754 103.664L289.834 108.922C290.142 109.45 290.384 110 291.11 110C291.66 110 292.188 109.538 292.188 108.966C292.188 108.658 292.078 108.416 291.924 108.174L288.008 101.442L291.924 94.71C292.078 94.468 292.188 94.226 292.188 93.918C292.188 93.346 291.66 92.884 291.11 92.884C290.384 92.884 290.142 93.434 289.834 93.962L286.754 99.22L283.674 93.962C283.366 93.434 283.124 92.884 282.398 92.884C281.848 92.884 281.32 93.346 281.32 93.918C281.32 94.226 281.43 94.468 281.584 94.71L285.5 101.442L281.584 108.174ZM297.418 108.174C297.264 108.416 297.154 108.658 297.154 108.966C297.154 109.538 297.682 110 298.232 110C298.958 110 299.2 109.45 299.508 108.922L302.588 103.664L305.668 108.922C305.976 109.45 306.218 110 306.944 110C307.494 110 308.022 109.538 308.022 108.966C308.022 108.658 307.912 108.416 307.758 108.174L303.842 101.442L307.758 94.71C307.912 94.468 308.022 94.226 308.022 93.918C308.022 93.346 307.494 92.884 306.944 92.884C306.218 92.884 305.976 93.434 305.668 93.962L302.588 99.22L299.508 93.962C299.2 93.434 298.958 92.884 298.232 92.884C297.682 92.884 297.154 93.346 297.154 93.918C297.154 94.226 297.264 94.468 297.418 94.71L301.334 101.442L297.418 108.174ZM313.252 108.174C313.098 108.416 312.988 108.658 312.988 108.966C312.988 109.538 313.516 110 314.066 110C314.792 110 315.034 109.45 315.342 108.922L318.422 103.664L321.502 108.922C321.81 109.45 322.052 110 322.778 110C323.328 110 323.856 109.538 323.856 108.966C323.856 108.658 323.746 108.416 323.592 108.174L319.676 101.442L323.592 94.71C323.746 94.468 323.856 94.226 323.856 93.918C323.856 93.346 323.328 92.884 322.778 92.884C322.052 92.884 321.81 93.434 321.502 93.962L318.422 99.22L315.342 93.962C315.034 93.434 314.792 92.884 314.066 92.884C313.516 92.884 312.988 93.346 312.988 93.918C312.988 94.226 313.098 94.468 313.252 94.71L317.168 101.442L313.252 108.174Z" fill="#505565"/>
<rect x="19.5" y="80.5" width="317" height="39" rx="3.5" stroke="#FFBE0B"/>
<circle cx="320.5" cy="31.5" r="12" stroke="#505565"/>
<circle cx="304.5" cy="31.5" r="12" stroke="#505565"/>
</g>
<defs>
<filter id="filter0_d" x="20" y="20" width="356" height="203" filterUnits="userSpaceOnUse" color-interpolation-filters="sRGB">
<feFlood flood-opacity="0" result="BackgroundImageFix"/>
<feColorMatrix in="SourceAlpha" type="matrix" values="0 0 0 0 0 0 0 0 0 0 0 0 0 0 0 0 0 0 127 0"/>
<feOffset dy="4"/>
<feGaussianBlur stdDeviation="4"/>
<feColorMatrix type="matrix" values="0 0 0 0 0 0 0 0 0 0 0 0 0 0 0 0 0 0 0.1 0"/>
<feBlend mode="multiply" in2="BackgroundImageFix" result="effect1_dropShadow"/>
<feBlend mode="normal" in="SourceGraphic" in2="effect1_dropShadow" result="shape"/>
</filter>
<filter id="filter1_d" x="0" y="0" width="356" height="203" filterUnits="userSpaceOnUse" color-interpolation-filters="sRGB">
<feFlood flood-opacity="0" result="BackgroundImageFix"/>
<feColorMatrix in="SourceAlpha" type="matrix" values="0 0 0 0 0 0 0 0 0 0 0 0 0 0 0 0 0 0 127 0"/>
<feOffset dy="4"/>
<feGaussianBlur stdDeviation="4"/>
<feColorMatrix type="matrix" values="0 0 0 0 0 0 0 0 0 0 0 0 0 0 0 0 0 0 0.1 0"/>
<feBlend mode="multiply" in2="BackgroundImageFix" result="effect1_dropShadow"/>
<feBlend mode="normal" in="SourceGraphic" in2="effect1_dropShadow" result="shape"/>
</filter>
</defs>
</svg>
