<svg width="85" height="85" viewBox="0 0 85 85" fill="none" xmlns="http://www.w3.org/2000/svg">
<g clip-path="url(#clip0)">
<path d="M40.2517 35.5421C41.6431 34.7395 43.3569 34.7395 44.7483 35.5421L77.238 54.2816C80.2402 56.0132 80.2402 60.3461 77.238 62.0777L44.7483 80.8172C43.3569 81.6198 41.6431 81.6198 40.2517 80.8172L7.76199 62.0777C4.75978 60.3461 4.75978 56.0132 7.762 54.2816L40.2517 35.5421Z" fill="#DADBFD" stroke="#DADBFD" stroke-width="5"/>
<path d="M40.2517 19.8625C41.6431 19.06 43.3569 19.06 44.7483 19.8625L77.238 38.602C80.2402 40.3336 80.2402 44.6665 77.238 46.3982L44.7483 65.1376C43.3569 65.9402 41.6431 65.9402 40.2517 65.1376L7.76199 46.3981C4.75978 44.6665 4.75978 40.3336 7.762 38.602L40.2517 19.8625Z" fill="#8F91F4" stroke="#8F91F4" stroke-width="5"/>
<path d="M40.2517 4.18285C41.6431 3.38027 43.3569 3.38028 44.7483 4.18285L77.238 22.9223C80.2402 24.6539 80.2402 28.9868 77.238 30.7185L44.7483 49.4579C43.3569 50.2605 41.6431 50.2605 40.2517 49.4579L7.76199 30.7185C4.75978 28.9868 4.75978 24.6539 7.762 22.9223L40.2517 4.18285Z" fill="#4547DC" stroke="#4547DC" stroke-width="5"/>
</g>
<defs>
<clipPath id="clip0">
<rect width="85" height="85" fill="white"/>
</clipPath>
</defs>
</svg>
