<svg width="145" height="105" viewBox="0 0 145 105" fill="none" xmlns="http://www.w3.org/2000/svg">
<circle cx="2.5" cy="2.5" r="2.5" fill="#27AD44"/>
<circle cx="2.5" cy="22.5" r="2.5" fill="#27AD44"/>
<circle cx="2.5" cy="42.5" r="2.5" fill="#27AD44"/>
<circle cx="2.5" cy="62.5" r="2.5" fill="#27AD44"/>
<circle cx="2.5" cy="82.5" r="2.5" fill="#27AD44"/>
<circle cx="2.5" cy="102.5" r="2.5" fill="#27AD44"/>
<circle cx="22.5" cy="2.5" r="2.5" fill="#27AD44"/>
<circle cx="42.5" cy="2.5" r="2.5" fill="#27AD44"/>
<circle cx="22.5" cy="22.5" r="2.5" fill="#27AD44"/>
<circle cx="22.5" cy="42.5" r="2.5" fill="#27AD44"/>
<circle cx="22.5" cy="62.5" r="2.5" fill="#27AD44"/>
<circle cx="22.5" cy="82.5" r="2.5" fill="#27AD44"/>
<circle cx="22.5" cy="102.5" r="2.5" fill="#27AD44"/>
<circle cx="42.5" cy="22.5" r="2.5" fill="#27AD44"/>
<circle cx="42.5" cy="42.5" r="2.5" fill="#27AD44"/>
<circle cx="42.5" cy="62.5" r="2.5" fill="#27AD44"/>
<circle cx="42.5" cy="82.5" r="2.5" fill="#27AD44"/>
<circle cx="42.5" cy="102.5" r="2.5" fill="#27AD44"/>
<circle cx="62.5" cy="2.5" r="2.5" fill="#27AD44"/>
<circle cx="62.5" cy="22.5" r="2.5" fill="#27AD44"/>
<circle cx="62.5" cy="42.5" r="2.5" fill="#27AD44"/>
<circle cx="62.5" cy="62.5" r="2.5" fill="#27AD44"/>
<circle cx="62.5" cy="82.5" r="2.5" fill="#27AD44"/>
<circle cx="62.5" cy="102.5" r="2.5" fill="#27AD44"/>
<circle cx="82.5" cy="2.5" r="2.5" fill="#27AD44"/>
<circle cx="82.5" cy="22.5" r="2.5" fill="#27AD44"/>
<circle cx="82.5" cy="42.5" r="2.5" fill="#27AD44"/>
<circle cx="82.5" cy="62.5" r="2.5" fill="#27AD44"/>
<circle cx="82.5" cy="82.5" r="2.5" fill="#27AD44"/>
<circle cx="82.5" cy="102.5" r="2.5" fill="#27AD44"/>
<circle cx="102.5" cy="2.5" r="2.5" fill="#27AD44"/>
<circle cx="122.5" cy="2.5" r="2.5" fill="#27AD44"/>
<circle cx="102.5" cy="22.5" r="2.5" fill="#27AD44"/>
<circle cx="102.5" cy="42.5" r="2.5" fill="#27AD44"/>
<circle cx="102.5" cy="62.5" r="2.5" fill="#27AD44"/>
<circle cx="102.5" cy="82.5" r="2.5" fill="#27AD44"/>
<circle cx="102.5" cy="102.5" r="2.5" fill="#27AD44"/>
<circle cx="122.5" cy="22.5" r="2.5" fill="#27AD44"/>
<circle cx="122.5" cy="42.5" r="2.5" fill="#27AD44"/>
<circle cx="122.5" cy="62.5" r="2.5" fill="#27AD44"/>
<circle cx="122.5" cy="82.5" r="2.5" fill="#27AD44"/>
<circle cx="122.5" cy="102.5" r="2.5" fill="#27AD44"/>
<circle cx="142.5" cy="2.5" r="2.5" fill="#27AD44"/>
<circle cx="142.5" cy="22.5" r="2.5" fill="#27AD44"/>
<circle cx="142.5" cy="42.5" r="2.5" fill="#27AD44"/>
<circle cx="142.5" cy="62.5" r="2.5" fill="#27AD44"/>
<circle cx="142.5" cy="82.5" r="2.5" fill="#27AD44"/>
<circle cx="142.5" cy="102.5" r="2.5" fill="#27AD44"/>
</svg>
