<svg width="248" height="205" viewBox="0 0 248 205" fill="none" xmlns="http://www.w3.org/2000/svg">
<circle cx="5.5" cy="2.5" r="2.5" fill="#27AD44"/>
<circle cx="5.5" cy="22.5" r="2.5" fill="#27AD44"/>
<circle cx="5.5" cy="42.5" r="2.5" fill="#27AD44"/>
<circle cx="5.5" cy="62.5" r="2.5" fill="#27AD44"/>
<circle cx="5.5" cy="82.5" r="2.5" fill="#27AD44"/>
<circle cx="5.5" cy="102.5" r="2.5" fill="#27AD44"/>
<circle cx="25.5" cy="2.5" r="2.5" fill="#27AD44"/>
<circle cx="25.5" cy="22.5" r="2.5" fill="#27AD44"/>
<circle cx="25.5" cy="42.5" r="2.5" fill="#27AD44"/>
<circle cx="25.5" cy="62.5" r="2.5" fill="#27AD44"/>
<circle cx="25.5" cy="82.5" r="2.5" fill="#27AD44"/>
<circle cx="25.5" cy="102.5" r="2.5" fill="#27AD44"/>
<circle cx="45.5" cy="2.5" r="2.5" fill="#27AD44"/>
<circle cx="45.5" cy="22.5" r="2.5" fill="#27AD44"/>
<circle cx="45.5" cy="42.5" r="2.5" fill="#27AD44"/>
<circle cx="45.5" cy="62.5" r="2.5" fill="#27AD44"/>
<circle cx="45.5" cy="82.5" r="2.5" fill="#27AD44"/>
<circle cx="45.5" cy="102.5" r="2.5" fill="#27AD44"/>
<circle cx="65.5" cy="2.5" r="2.5" fill="#27AD44"/>
<circle cx="85.5" cy="2.5" r="2.5" fill="#27AD44"/>
<circle cx="65.5" cy="22.5" r="2.5" fill="#27AD44"/>
<circle cx="65.5" cy="42.5" r="2.5" fill="#27AD44"/>
<circle cx="65.5" cy="62.5" r="2.5" fill="#27AD44"/>
<circle cx="65.5" cy="82.5" r="2.5" fill="#27AD44"/>
<circle cx="65.5" cy="102.5" r="2.5" fill="#27AD44"/>
<circle cx="85.5" cy="22.5" r="2.5" fill="#27AD44"/>
<circle cx="85.5" cy="42.5" r="2.5" fill="#27AD44"/>
<circle cx="85.5" cy="62.5" r="2.5" fill="#27AD44"/>
<circle cx="85.5" cy="82.5" r="2.5" fill="#27AD44"/>
<circle cx="85.5" cy="102.5" r="2.5" fill="#27AD44"/>
<circle cx="105.5" cy="2.5" r="2.5" fill="#27AD44"/>
<circle cx="105.5" cy="22.5" r="2.5" fill="#27AD44"/>
<circle cx="105.5" cy="42.5" r="2.5" fill="#27AD44"/>
<circle cx="105.5" cy="62.5" r="2.5" fill="#27AD44"/>
<circle cx="105.5" cy="82.5" r="2.5" fill="#27AD44"/>
<circle cx="105.5" cy="102.5" r="2.5" fill="#27AD44"/>
<circle cx="105.5" cy="2.5" r="2.5" fill="#27AD44"/>
<circle cx="105.5" cy="22.5" r="2.5" fill="#27AD44"/>
<circle cx="105.5" cy="42.5" r="2.5" fill="#27AD44"/>
<circle cx="105.5" cy="62.5" r="2.5" fill="#27AD44"/>
<circle cx="105.5" cy="82.5" r="2.5" fill="#27AD44"/>
<circle cx="105.5" cy="102.5" r="2.5" fill="#27AD44"/>
<circle cx="125.5" cy="2.5" r="2.5" fill="#27AD44"/>
<circle cx="145.5" cy="2.5" r="2.5" fill="#27AD44"/>
<circle cx="125.5" cy="22.5" r="2.5" fill="#27AD44"/>
<circle cx="125.5" cy="42.5" r="2.5" fill="#27AD44"/>
<circle cx="125.5" cy="62.5" r="2.5" fill="#27AD44"/>
<circle cx="125.5" cy="82.5" r="2.5" fill="#27AD44"/>
<circle cx="125.5" cy="102.5" r="2.5" fill="#27AD44"/>
<circle cx="145.5" cy="22.5" r="2.5" fill="#27AD44"/>
<circle cx="145.5" cy="42.5" r="2.5" fill="#27AD44"/>
<circle cx="145.5" cy="62.5" r="2.5" fill="#27AD44"/>
<circle cx="145.5" cy="82.5" r="2.5" fill="#27AD44"/>
<circle cx="145.5" cy="102.5" r="2.5" fill="#27AD44"/>
<circle cx="165.5" cy="2.5" r="2.5" fill="#27AD44"/>
<circle cx="165.5" cy="22.5" r="2.5" fill="#27AD44"/>
<circle cx="165.5" cy="42.5" r="2.5" fill="#27AD44"/>
<circle cx="165.5" cy="62.5" r="2.5" fill="#27AD44"/>
<circle cx="165.5" cy="82.5" r="2.5" fill="#27AD44"/>
<circle cx="165.5" cy="102.5" r="2.5" fill="#27AD44"/>
<circle cx="185.5" cy="2.5" r="2.5" fill="#27AD44"/>
<circle cx="185.5" cy="22.5" r="2.5" fill="#27AD44"/>
<circle cx="185.5" cy="42.5" r="2.5" fill="#27AD44"/>
<circle cx="185.5" cy="62.5" r="2.5" fill="#27AD44"/>
<circle cx="185.5" cy="82.5" r="2.5" fill="#27AD44"/>
<circle cx="185.5" cy="102.5" r="2.5" fill="#27AD44"/>
<circle cx="205.5" cy="2.5" r="2.5" fill="#27AD44"/>
<circle cx="225.5" cy="2.5" r="2.5" fill="#27AD44"/>
<circle cx="205.5" cy="22.5" r="2.5" fill="#27AD44"/>
<circle cx="205.5" cy="42.5" r="2.5" fill="#27AD44"/>
<circle cx="205.5" cy="62.5" r="2.5" fill="#27AD44"/>
<circle cx="205.5" cy="82.5" r="2.5" fill="#27AD44"/>
<circle cx="205.5" cy="102.5" r="2.5" fill="#27AD44"/>
<circle cx="225.5" cy="22.5" r="2.5" fill="#27AD44"/>
<circle cx="225.5" cy="42.5" r="2.5" fill="#27AD44"/>
<circle cx="225.5" cy="62.5" r="2.5" fill="#27AD44"/>
<circle cx="225.5" cy="82.5" r="2.5" fill="#27AD44"/>
<circle cx="225.5" cy="102.5" r="2.5" fill="#27AD44"/>
<circle cx="245.5" cy="2.5" r="2.5" fill="#27AD44"/>
<circle cx="245.5" cy="22.5" r="2.5" fill="#27AD44"/>
<circle cx="245.5" cy="42.5" r="2.5" fill="#27AD44"/>
<circle cx="245.5" cy="62.5" r="2.5" fill="#27AD44"/>
<circle cx="245.5" cy="82.5" r="2.5" fill="#27AD44"/>
<circle cx="245.5" cy="102.5" r="2.5" fill="#27AD44"/>
<circle cx="5.5" cy="102.5" r="2.5" fill="#27AD44"/>
<circle cx="5.5" cy="122.5" r="2.5" fill="#27AD44"/>
<circle cx="5.5" cy="142.5" r="2.5" fill="#27AD44"/>
<circle cx="5.5" cy="162.5" r="2.5" fill="#27AD44"/>
<circle cx="5.5" cy="182.5" r="2.5" fill="#27AD44"/>
<circle cx="5.5" cy="202.5" r="2.5" fill="#27AD44"/>
<circle cx="25.5" cy="102.5" r="2.5" fill="#27AD44"/>
<circle cx="25.5" cy="122.5" r="2.5" fill="#27AD44"/>
<circle cx="25.5" cy="142.5" r="2.5" fill="#27AD44"/>
<circle cx="25.5" cy="162.5" r="2.5" fill="#27AD44"/>
<circle cx="25.5" cy="182.5" r="2.5" fill="#27AD44"/>
<circle cx="25.5" cy="202.5" r="2.5" fill="#27AD44"/>
<circle cx="45.5" cy="102.5" r="2.5" fill="#27AD44"/>
<circle cx="45.5" cy="122.5" r="2.5" fill="#27AD44"/>
<circle cx="45.5" cy="142.5" r="2.5" fill="#27AD44"/>
<circle cx="45.5" cy="162.5" r="2.5" fill="#27AD44"/>
<circle cx="45.5" cy="182.5" r="2.5" fill="#27AD44"/>
<circle cx="45.5" cy="202.5" r="2.5" fill="#27AD44"/>
<circle cx="65.5" cy="102.5" r="2.5" fill="#27AD44"/>
<circle cx="85.5" cy="102.5" r="2.5" fill="#27AD44"/>
<circle cx="65.5" cy="122.5" r="2.5" fill="#27AD44"/>
<circle cx="65.5" cy="142.5" r="2.5" fill="#27AD44"/>
<circle cx="65.5" cy="162.5" r="2.5" fill="#27AD44"/>
<circle cx="65.5" cy="182.5" r="2.5" fill="#27AD44"/>
<circle cx="65.5" cy="202.5" r="2.5" fill="#27AD44"/>
<circle cx="85.5" cy="122.5" r="2.5" fill="#27AD44"/>
<circle cx="85.5" cy="142.5" r="2.5" fill="#27AD44"/>
<circle cx="85.5" cy="162.5" r="2.5" fill="#27AD44"/>
<circle cx="85.5" cy="182.5" r="2.5" fill="#27AD44"/>
<circle cx="85.5" cy="202.5" r="2.5" fill="#27AD44"/>
<circle cx="105.5" cy="102.5" r="2.5" fill="#27AD44"/>
<circle cx="105.5" cy="122.5" r="2.5" fill="#27AD44"/>
<circle cx="105.5" cy="142.5" r="2.5" fill="#27AD44"/>
<circle cx="105.5" cy="162.5" r="2.5" fill="#27AD44"/>
<circle cx="105.5" cy="182.5" r="2.5" fill="#27AD44"/>
<circle cx="105.5" cy="202.5" r="2.5" fill="#27AD44"/>
<circle cx="105.5" cy="102.5" r="2.5" fill="#27AD44"/>
<circle cx="105.5" cy="122.5" r="2.5" fill="#27AD44"/>
<circle cx="105.5" cy="142.5" r="2.5" fill="#27AD44"/>
<circle cx="105.5" cy="162.5" r="2.5" fill="#27AD44"/>
<circle cx="105.5" cy="182.5" r="2.5" fill="#27AD44"/>
<circle cx="105.5" cy="202.5" r="2.5" fill="#27AD44"/>
<circle cx="125.5" cy="102.5" r="2.5" fill="#27AD44"/>
<circle cx="145.5" cy="102.5" r="2.5" fill="#27AD44"/>
<circle cx="125.5" cy="122.5" r="2.5" fill="#27AD44"/>
<circle cx="125.5" cy="142.5" r="2.5" fill="#27AD44"/>
<circle cx="125.5" cy="162.5" r="2.5" fill="#27AD44"/>
<circle cx="125.5" cy="182.5" r="2.5" fill="#27AD44"/>
<circle cx="125.5" cy="202.5" r="2.5" fill="#27AD44"/>
<circle cx="145.5" cy="122.5" r="2.5" fill="#27AD44"/>
<circle cx="145.5" cy="142.5" r="2.5" fill="#27AD44"/>
<circle cx="145.5" cy="162.5" r="2.5" fill="#27AD44"/>
<circle cx="145.5" cy="182.5" r="2.5" fill="#27AD44"/>
<circle cx="145.5" cy="202.5" r="2.5" fill="#27AD44"/>
<circle cx="165.5" cy="102.5" r="2.5" fill="#27AD44"/>
<circle cx="165.5" cy="122.5" r="2.5" fill="#27AD44"/>
<circle cx="165.5" cy="142.5" r="2.5" fill="#27AD44"/>
<circle cx="165.5" cy="162.5" r="2.5" fill="#27AD44"/>
<circle cx="165.5" cy="182.5" r="2.5" fill="#27AD44"/>
<circle cx="165.5" cy="202.5" r="2.5" fill="#27AD44"/>
<circle cx="185.5" cy="102.5" r="2.5" fill="#27AD44"/>
<circle cx="185.5" cy="122.5" r="2.5" fill="#27AD44"/>
<circle cx="185.5" cy="142.5" r="2.5" fill="#27AD44"/>
<circle cx="185.5" cy="162.5" r="2.5" fill="#27AD44"/>
<circle cx="185.5" cy="182.5" r="2.5" fill="#27AD44"/>
<circle cx="185.5" cy="202.5" r="2.5" fill="#27AD44"/>
<circle cx="205.5" cy="102.5" r="2.5" fill="#27AD44"/>
<circle cx="225.5" cy="102.5" r="2.5" fill="#27AD44"/>
<circle cx="205.5" cy="122.5" r="2.5" fill="#27AD44"/>
<circle cx="205.5" cy="142.5" r="2.5" fill="#27AD44"/>
<circle cx="205.5" cy="162.5" r="2.5" fill="#27AD44"/>
<circle cx="205.5" cy="182.5" r="2.5" fill="#27AD44"/>
<circle cx="205.5" cy="202.5" r="2.5" fill="#27AD44"/>
<circle cx="225.5" cy="122.5" r="2.5" fill="#27AD44"/>
<circle cx="225.5" cy="142.5" r="2.5" fill="#27AD44"/>
<circle cx="225.5" cy="162.5" r="2.5" fill="#27AD44"/>
<circle cx="225.5" cy="182.5" r="2.5" fill="#27AD44"/>
<circle cx="225.5" cy="202.5" r="2.5" fill="#27AD44"/>
<circle cx="245.5" cy="102.5" r="2.5" fill="#27AD44"/>
<circle cx="245.5" cy="122.5" r="2.5" fill="#27AD44"/>
<circle cx="245.5" cy="142.5" r="2.5" fill="#27AD44"/>
<circle cx="245.5" cy="162.5" r="2.5" fill="#27AD44"/>
<circle cx="245.5" cy="182.5" r="2.5" fill="#27AD44"/>
<circle cx="245.5" cy="202.5" r="2.5" fill="#27AD44"/>
</svg>
