<svg width="85" height="85" viewBox="0 0 85 85" fill="none" xmlns="http://www.w3.org/2000/svg">
<path d="M50.6504 8.73481C50.6504 11.1095 48.7474 13.0348 46.4004 13.0348C44.0533 13.0348 42.1504 11.1095 42.1504 8.73481C42.1504 6.36016 44.0533 4.43481 46.4004 4.43481C48.7474 4.43481 50.6504 6.36016 50.6504 8.73481Z" fill="#8F91F4"/>
<path d="M4.25033 44.5667H11.3337V50.3H4.25033C2.68563 50.3 1.41699 49.0164 1.41699 47.4333C1.41699 45.8502 2.68563 44.5667 4.25033 44.5667Z" fill="#A8A8A8"/>
<path d="M11.3333 50.3H8.5V44.5667H12.75L11.3333 50.3Z" fill="#878787"/>
<path d="M80.7503 50.3H73.667V44.5667H80.7503C82.315 44.5667 83.5837 45.8502 83.5837 47.4333C83.5837 49.0164 82.315 50.3 80.7503 50.3Z" fill="#A8A8A8"/>
<path d="M76.5 50.3H73.6667L72.25 44.5667H76.5V50.3Z" fill="#878787"/>
<path d="M42.4997 41.7C52.9504 41.7986 63.3748 42.7715 73.6663 44.6093V63.9593C73.6663 73.4586 66.0552 81.1593 56.6663 81.1593H28.333C18.9441 81.1593 11.333 73.4586 11.333 63.9593V45.326C21.572 43.0437 32.0158 41.8287 42.4997 41.7Z" fill="#4547DC"/>
<path d="M73.6663 45.2833C73.6663 41.7209 59.7127 38.8333 42.4997 38.8333C25.2866 38.8333 11.333 41.7209 11.333 45.2833C11.333 48.8456 25.2866 51.7332 42.4997 51.7332C59.7127 51.7332 73.6663 48.8456 73.6663 45.2833Z" fill="#DADBFD"/>
<path d="M45.5795 11.4712C29.0893 6.47346 14.9026 5.1878 13.892 8.60037C12.8813 12.0129 25.43 18.8318 41.9202 23.8295C58.4097 28.828 72.5972 30.1137 73.6071 26.7004C74.6177 23.2878 62.069 16.4697 45.5795 11.4712Z" fill="#4547DC"/>
<path d="M31.1667 27.3667C31.1667 28.9498 29.898 30.2333 28.3333 30.2333C26.7686 30.2333 25.5 28.9498 25.5 27.3667C25.5 25.7836 26.7686 24.5 28.3333 24.5C29.898 24.5 31.1667 25.7836 31.1667 27.3667Z" fill="#DADBFD"/>
<path d="M62.3337 35.9666C62.3337 37.5498 61.065 38.8333 59.5003 38.8333C57.9356 38.8333 56.667 37.5498 56.667 35.9666C56.667 34.3835 57.9356 33.1 59.5003 33.1C61.065 33.1 62.3337 34.3835 62.3337 35.9666Z" fill="#DADBFD"/>
<path d="M12.75 24.5H11.3333C7.42297 24.4951 4.25484 21.2897 4.25 17.3333V10.1667C4.25 7.79201 2.34705 5.86667 0 5.86667V3C3.91036 3.0049 7.07849 6.2103 7.08333 10.1667V17.3333C7.08333 19.708 8.98629 21.6333 11.3333 21.6333H12.75V24.5Z" fill="#FFBE0B"/>
<path d="M24.083 35.9667H22.6663C18.756 35.9618 15.5878 32.7564 15.583 28.8V21.6333C15.583 19.2587 13.6801 17.3333 11.333 17.3333V14.4667C15.2434 14.4716 18.4115 17.677 18.4163 21.6333V28.8C18.4163 31.1747 20.3193 33.1 22.6663 33.1H24.083V35.9667Z" fill="#FFBE0B"/>
<path d="M73.6667 37.4H72.25V34.5334H73.6667C76.0137 34.5334 77.9167 32.608 77.9167 30.2334V23.0667C77.9215 19.1103 81.0896 15.9049 85 15.9V18.7667C82.653 18.7667 80.75 20.692 80.75 23.0667V30.2334C80.7452 34.1897 77.577 37.3951 73.6667 37.4Z" fill="#FFBE0B"/>
<path d="M75.0833 18.7667H72.25V11.6C72.2548 7.64365 75.423 4.43825 79.3333 4.43335V7.30002C76.9863 7.30002 75.0833 9.22536 75.0833 11.6V18.7667Z" fill="#FFBE0B"/>
<path d="M70.4194 48.15C70.4194 46.1708 57.9192 44.5667 42.4998 44.5667C27.0804 44.5667 14.5801 46.1708 14.5801 48.15C14.5801 50.1292 27.0804 51.7333 42.4998 51.7333C57.9192 51.7333 70.4194 50.1292 70.4194 48.15Z" fill="#F3AF3E"/>
<path d="M65.7164 49.5834C65.7164 48.3957 55.3217 47.4333 42.4998 47.4333C29.6779 47.4333 19.2832 48.3957 19.2832 49.5834C19.2832 50.771 29.6779 51.7334 42.4998 51.7334C55.3217 51.7334 65.7164 50.771 65.7164 49.5834Z" fill="#FFBE0B"/>
<path d="M45.3337 31.6667C45.3337 33.2498 44.065 34.5334 42.5003 34.5334C40.9356 34.5334 39.667 33.2498 39.667 31.6667C39.667 30.0836 40.9356 28.8 42.5003 28.8C44.065 28.8 45.3337 30.0836 45.3337 31.6667Z" fill="#DADBFD"/>
</svg>
