<svg width="85" height="85" viewBox="0 0 85 85" fill="none" xmlns="http://www.w3.org/2000/svg">
<g clip-path="url(#clip0)">
<path d="M46.1575 67.1761L42.5306 70.8031C41.5282 71.8055 39.9059 71.8055 38.9037 70.8031C37.9013 69.8007 37.9013 68.1784 38.9037 67.1761L42.5306 63.5492C43.5312 62.5486 43.5312 60.9228 42.5306 59.9222L39.1958 56.5875C38.1934 55.5851 38.1934 53.9628 39.1958 52.9605C40.1982 51.9581 41.8206 51.9581 42.8228 52.9605L46.1575 56.2953C49.1578 59.2952 49.1578 64.1759 46.1575 67.1761Z" fill="#4547DC"/>
<path d="M51.5982 83.4975C49.595 85.5007 46.3473 85.5007 44.3443 83.4975L26.2092 65.3625L33.4631 58.1084L51.5982 76.2435C53.6015 78.2466 53.6015 81.4944 51.5982 83.4975Z" fill="#4547DC"/>
<path d="M26.0645 43.4552L37.3084 54.6991L37.0907 61.7355L24.3962 74.4301C21.3858 77.4404 16.453 77.3681 13.4426 74.3574L6.18856 67.1033C3.21439 64.1291 3.25058 59.3052 6.26128 56.2949L18.9558 43.6003L26.0645 43.4552Z" fill="#4547DC"/>
<path d="M57.9383 10.2594C56.5234 10.2611 55.374 9.11177 55.374 7.69516L55.3724 2.56461C55.372 1.14767 56.5197 1.79626e-06 57.9367 1.79626e-06C59.3516 -0.00165836 60.5009 1.14767 60.5009 2.56428L60.5026 7.69483C60.5028 9.11177 59.3553 10.2594 57.9383 10.2594Z" fill="#FFBE0B"/>
<path d="M78.4551 25.6478L73.3246 25.6461C71.9078 25.6461 70.7583 24.4968 70.7603 23.0819C70.7603 21.6651 71.908 20.5176 73.3246 20.5176L78.4551 20.5192C79.8719 20.5192 81.0214 21.6686 81.0194 23.0835C81.0194 24.5001 79.8719 25.6478 78.4551 25.6478Z" fill="#FFBE0B"/>
<path d="M75.1737 5.51677C76.1892 6.53229 76.1894 8.12819 75.1737 9.14371L69.7332 14.5842C68.7176 15.5999 67.1217 15.5997 66.1063 14.5842C65.0906 13.5685 65.0906 11.9728 66.1063 10.9573L71.5468 5.51677C72.5623 4.50108 74.158 4.50108 75.1737 5.51677Z" fill="#FFBE0B"/>
<path d="M44.3445 10.9572L69.7336 36.3463C70.4591 37.0718 71.3657 44.7246 72.3087 44.8699L65.1637 46.357C54.5728 48.4606 44.526 54.3002 37.7072 61.119L37.0906 61.7356L18.9553 43.6004L19.5718 42.9838C26.7535 35.8021 32.0487 26.2992 34.2249 15.4184L35.7119 7.98303L44.3445 10.9572Z" fill="#B9BAF8"/>
<path d="M24.396 56.2949C25.4115 57.3105 25.4116 58.9064 24.396 59.9219L20.769 63.549C19.7533 64.5647 18.1574 64.5645 17.1421 63.549C16.1264 62.5333 16.1264 60.9376 17.1421 59.922L20.769 56.2951C21.7847 55.2794 23.3804 55.2794 24.396 56.2949Z" fill="#8F91F4"/>
<path d="M44.3442 3.70331L76.9873 36.3465C78.9822 38.3413 78.9822 41.6057 76.9873 43.6005C76.7697 43.8182 76.4795 43.9631 76.1891 44.1082C75.0285 44.9064 73.6504 45.1964 72.3082 44.8699C71.3654 44.7249 70.4586 44.326 69.7331 43.6005L37.0899 10.9572C36.2555 10.1228 35.8568 9.07109 35.7115 7.98302C35.5666 6.89496 35.7844 5.80656 36.3283 4.82757C36.5821 4.42846 36.7634 4.02969 37.0899 3.70314C39.0848 1.70846 42.3493 1.70846 44.3442 3.70331Z" fill="#4547DC"/>
</g>
<defs>
<clipPath id="clip0">
<rect width="85" height="85" fill="white"/>
</clipPath>
</defs>
</svg>
